<svg id="svg" version="1.1" xmlns="http://www.w3.org/2000/svg" xmlns:xlink="http://www.w3.org/1999/xlink" width="400" height="414" viewBox="0, 0, 400,414"><g id="svgg"><path id="path0" d="M153.000 125.395 C 149.200 126.426,147.837 127.198,143.611 130.712 C 136.972 136.234,127.133 146.283,126.684 148.001 C 125.764 151.517,130.581 151.603,135.084 148.150 C 136.138 147.342,137.630 146.390,138.400 146.034 C 139.170 145.678,140.250 145.095,140.800 144.738 C 144.959 142.042,151.483 143.087,156.956 147.326 C 160.641 150.179,166.886 157.254,168.491 160.395 C 168.771 160.941,169.322 161.713,169.715 162.110 C 170.519 162.920,170.327 165.307,169.368 166.410 C 169.077 166.746,168.719 167.826,168.573 168.810 C 168.426 169.795,167.977 171.180,167.574 171.888 C 167.171 172.597,166.722 173.857,166.576 174.688 C 166.431 175.520,165.997 176.751,165.614 177.425 C 165.230 178.098,164.694 179.574,164.423 180.705 C 164.152 181.835,163.680 182.967,163.375 183.220 C 163.071 183.473,162.700 184.337,162.553 185.140 C 162.405 185.943,161.875 187.503,161.373 188.606 C 160.872 189.710,160.334 191.150,160.177 191.806 C 160.021 192.463,159.657 193.273,159.369 193.606 C 159.081 193.940,158.645 195.107,158.400 196.200 C 158.155 197.293,157.726 198.460,157.446 198.794 C 157.167 199.127,156.710 200.197,156.432 201.171 C 156.153 202.145,155.582 203.583,155.163 204.365 C 154.743 205.148,154.400 206.049,154.400 206.368 C 154.400 206.687,154.050 207.679,153.623 208.574 C 153.196 209.468,152.581 210.920,152.257 211.800 C 150.589 216.332,149.515 219.023,149.226 219.391 C 149.049 219.616,148.681 220.520,148.408 221.400 C 148.134 222.280,147.676 223.376,147.388 223.836 C 147.100 224.296,146.654 225.466,146.395 226.436 C 146.137 227.406,145.689 228.470,145.400 228.800 C 145.111 229.130,144.660 230.204,144.399 231.186 C 144.137 232.168,143.580 233.407,143.161 233.940 C 142.743 234.472,142.400 235.165,142.400 235.479 C 142.400 235.988,141.646 237.758,139.196 243.000 C 136.511 248.744,136.000 249.908,136.000 250.283 C 136.000 250.513,135.752 250.908,135.450 251.159 C 135.147 251.410,134.673 252.426,134.395 253.418 C 134.117 254.409,133.720 255.326,133.512 255.454 C 133.304 255.583,132.782 256.433,132.351 257.344 C 130.158 261.985,129.261 263.152,126.848 264.502 C 119.822 268.432,113.018 274.607,111.633 278.313 L 110.746 280.684 111.755 282.172 C 113.331 284.494,115.243 285.842,120.000 287.982 C 120.550 288.229,121.450 288.692,122.000 289.010 C 123.756 290.025,129.060 289.810,129.651 288.700 C 129.915 288.205,130.342 287.620,130.601 287.400 C 130.860 287.180,131.386 286.145,131.769 285.100 C 132.152 284.055,132.594 283.200,132.750 283.200 C 132.906 283.200,133.240 282.435,133.491 281.500 C 134.028 279.506,136.705 276.585,138.800 275.707 C 139.570 275.384,140.534 274.823,140.941 274.460 C 141.547 273.920,142.927 273.764,148.513 273.600 L 155.344 273.400 155.634 272.315 C 155.998 270.946,155.537 268.858,154.539 267.359 C 153.660 266.037,153.254 265.361,151.748 262.700 C 151.157 261.655,150.534 260.800,150.363 260.800 C 150.193 260.800,149.942 260.449,149.806 260.020 C 149.670 259.591,148.938 258.856,148.179 258.387 C 146.725 257.488,146.345 255.984,147.197 254.495 C 147.415 254.113,147.851 253.080,148.165 252.200 C 148.479 251.320,149.220 249.340,149.811 247.800 C 150.401 246.260,151.147 244.190,151.469 243.200 C 151.790 242.210,152.380 240.680,152.780 239.800 C 153.945 237.238,155.213 233.957,155.871 231.800 C 156.207 230.700,156.620 229.620,156.789 229.400 C 156.958 229.180,157.311 228.280,157.575 227.400 C 157.838 226.520,158.382 225.170,158.783 224.400 C 159.185 223.630,159.643 222.385,159.803 221.634 C 159.962 220.883,160.522 219.461,161.046 218.475 C 161.571 217.488,162.000 216.358,162.000 215.963 C 162.000 215.569,162.343 214.650,162.761 213.923 C 163.180 213.195,163.649 211.970,163.804 211.200 C 163.959 210.430,164.427 209.239,164.843 208.553 C 165.259 207.867,165.600 206.960,165.600 206.537 C 165.600 206.115,165.966 205.056,166.414 204.185 C 166.862 203.313,167.424 201.790,167.664 200.800 C 167.904 199.810,168.341 198.612,168.635 198.137 C 168.929 197.663,169.379 196.403,169.635 195.337 C 169.891 194.272,170.341 193.012,170.635 192.537 C 170.929 192.063,171.381 190.803,171.639 189.737 C 171.897 188.672,172.443 187.239,172.854 186.553 C 173.264 185.867,173.600 184.960,173.600 184.537 C 173.600 184.115,173.968 183.056,174.418 182.185 C 174.867 181.313,175.418 179.765,175.641 178.744 C 176.531 174.679,178.357 174.865,181.159 179.307 C 182.025 180.678,183.033 182.131,183.401 182.535 C 183.769 182.939,184.327 183.884,184.640 184.635 C 184.954 185.386,185.366 186.000,185.557 186.000 C 185.747 186.000,186.142 186.577,186.434 187.283 C 186.727 187.988,187.288 188.888,187.683 189.283 C 188.077 189.677,188.400 190.256,188.400 190.569 C 188.400 190.882,188.825 191.647,189.345 192.269 C 189.865 192.891,190.426 193.850,190.591 194.400 C 190.757 194.950,191.211 195.760,191.600 196.200 C 191.989 196.640,192.444 197.447,192.610 197.992 C 192.776 198.538,193.219 199.438,193.594 199.992 C 195.663 203.054,196.378 204.315,196.633 205.358 C 196.788 205.995,197.231 206.831,197.617 207.217 C 198.003 207.603,198.441 208.477,198.591 209.159 C 198.741 209.842,199.036 210.400,199.246 210.400 C 199.456 210.400,199.967 211.190,200.381 212.156 C 200.795 213.122,201.316 214.024,201.538 214.162 C 201.760 214.299,202.161 215.084,202.429 215.906 C 202.697 216.728,203.238 217.813,203.631 218.319 C 204.023 218.824,204.457 219.750,204.595 220.377 C 204.733 221.004,205.185 221.824,205.600 222.200 C 206.015 222.576,206.466 223.392,206.603 224.014 C 206.740 224.636,207.101 225.352,207.405 225.604 C 207.710 225.857,208.174 226.725,208.438 227.532 C 208.701 228.339,209.245 229.423,209.648 229.941 C 210.050 230.458,210.491 231.480,210.629 232.213 C 210.766 232.945,211.121 233.638,211.417 233.751 C 211.713 233.865,212.186 234.728,212.468 235.669 C 212.750 236.611,213.275 237.675,213.636 238.036 C 213.996 238.396,214.417 239.365,214.572 240.191 C 214.727 241.016,215.181 242.043,215.582 242.473 C 215.983 242.903,216.417 243.786,216.547 244.435 C 216.677 245.084,217.145 246.003,217.587 246.478 C 218.028 246.952,218.501 247.932,218.637 248.656 C 218.773 249.379,219.134 250.179,219.439 250.432 C 219.744 250.686,220.193 251.631,220.436 252.533 C 220.678 253.434,221.207 254.592,221.611 255.105 C 222.014 255.618,222.471 256.614,222.624 257.319 C 222.778 258.023,223.236 259.023,223.642 259.541 C 224.047 260.058,224.498 261.118,224.644 261.895 C 224.790 262.673,225.226 263.626,225.612 264.012 C 225.999 264.399,226.438 265.438,226.587 266.322 C 226.736 267.206,227.197 268.236,227.612 268.610 C 228.026 268.985,228.485 270.096,228.633 271.078 C 228.780 272.060,229.139 272.955,229.431 273.067 C 230.425 273.449,230.784 275.794,230.692 281.291 C 230.603 286.582,230.633 286.805,231.500 287.414 C 231.995 287.761,232.400 288.310,232.400 288.633 C 232.400 288.956,232.855 289.393,233.410 289.604 C 233.966 289.815,234.525 290.261,234.653 290.594 C 234.987 291.464,236.947 291.343,237.800 290.400 C 238.198 289.960,238.741 289.600,239.007 289.600 C 239.994 289.600,244.270 285.848,246.400 283.112 C 247.682 281.466,247.768 277.693,246.556 276.347 C 245.517 275.194,245.514 262.847,246.553 260.046 C 246.910 259.081,247.465 256.291,247.786 253.846 C 248.107 251.401,248.556 248.860,248.784 248.200 C 249.012 247.540,249.557 245.110,249.997 242.800 C 250.729 238.947,251.371 236.034,252.421 231.800 C 252.640 230.920,253.087 228.850,253.416 227.200 C 253.745 225.550,254.360 223.030,254.783 221.600 C 255.205 220.170,255.736 217.964,255.962 216.699 C 256.188 215.433,256.561 214.047,256.789 213.620 C 257.018 213.192,257.464 211.490,257.780 209.836 C 258.097 208.183,258.547 206.473,258.780 206.036 C 259.014 205.600,259.469 203.862,259.792 202.175 C 260.115 200.488,260.565 198.883,260.793 198.608 C 261.021 198.334,261.393 197.050,261.621 195.755 C 261.849 194.460,262.366 192.590,262.771 191.600 C 263.175 190.610,263.633 188.900,263.788 187.800 C 263.943 186.700,264.391 185.260,264.784 184.600 C 265.176 183.940,265.605 182.430,265.736 181.245 C 265.868 180.060,266.236 178.800,266.554 178.445 C 266.872 178.090,267.253 177.080,267.400 176.200 C 267.785 173.898,268.411 172.000,268.786 172.000 C 268.964 172.000,269.228 171.145,269.372 170.100 C 269.670 167.955,270.349 166.000,270.796 166.000 C 270.961 166.000,271.310 164.912,271.571 163.583 C 272.148 160.654,273.000 159.347,276.967 155.311 C 290.708 141.331,292.095 137.371,285.452 131.082 C 279.732 125.667,277.540 126.279,269.880 135.436 C 260.516 146.630,254.631 151.851,250.849 152.321 C 246.259 152.891,248.707 157.491,256.051 162.095 C 257.154 162.787,257.719 164.687,257.132 165.735 C 256.955 166.052,256.627 167.602,256.403 169.179 C 256.179 170.757,255.734 172.554,255.414 173.173 C 255.093 173.793,254.637 175.515,254.400 177.000 C 254.163 178.485,253.716 180.189,253.407 180.786 C 253.098 181.383,252.635 183.116,252.378 184.636 C 252.121 186.156,251.674 187.940,251.385 188.600 C 251.096 189.260,250.644 191.150,250.382 192.800 C 250.119 194.450,249.667 196.264,249.378 196.831 C 249.088 197.397,248.580 199.415,248.249 201.314 C 247.917 203.213,247.460 205.113,247.234 205.537 C 247.007 205.960,246.620 207.633,246.373 209.253 C 246.126 210.874,245.678 212.740,245.379 213.400 C 245.079 214.060,244.545 216.298,244.192 218.373 C 243.839 220.448,243.401 222.428,243.218 222.773 C 243.036 223.118,242.682 224.750,242.433 226.400 C 242.183 228.050,241.721 230.210,241.406 231.200 C 241.091 232.190,240.548 234.965,240.200 237.366 C 239.851 239.767,239.482 241.867,239.380 242.033 C 239.277 242.198,238.941 243.780,238.633 245.548 C 237.649 251.181,235.922 250.342,233.799 243.200 C 233.329 241.622,231.516 237.810,225.617 226.000 C 219.996 214.749,217.672 210.296,213.820 203.400 C 213.329 202.520,212.424 200.900,211.810 199.800 C 210.393 197.264,209.359 195.479,207.603 192.539 C 206.835 191.253,206.086 189.911,205.938 189.557 C 205.789 189.204,204.873 187.674,203.901 186.157 C 202.929 184.640,202.058 183.220,201.966 183.000 C 201.766 182.519,199.588 178.895,198.000 176.400 C 197.370 175.410,196.302 173.700,195.627 172.600 C 193.925 169.826,193.644 169.398,191.577 166.423 C 190.575 164.980,189.630 163.530,189.477 163.200 C 189.325 162.870,188.565 161.790,187.788 160.800 C 187.011 159.810,186.161 158.505,185.900 157.900 C 185.638 157.295,185.289 156.800,185.123 156.800 C 183.516 156.800,183.285 151.617,184.764 148.779 C 186.264 145.901,187.006 138.429,186.041 135.916 C 185.091 133.443,180.758 130.292,178.556 130.473 L 177.000 130.600 176.778 134.651 C 176.616 137.620,176.361 139.001,175.824 139.820 L 175.091 140.938 172.918 138.569 C 171.723 137.266,170.182 135.480,169.494 134.600 C 167.186 131.649,161.831 127.062,159.690 126.201 C 158.566 125.749,157.516 125.249,157.356 125.090 C 156.930 124.664,155.267 124.780,153.000 125.395 " stroke="none" fill="#0ec8dd" fill-rule="evenodd"></path><path id="path1" d="M171.829 35.829 C 171.483 36.174,171.200 36.624,171.200 36.829 C 171.200 37.037,169.010 37.200,166.200 37.200 L 161.200 37.200 161.200 38.186 C 161.200 39.158,161.147 39.173,157.300 39.286 C 153.600 39.394,153.393 39.446,153.272 40.300 C 153.153 41.141,152.950 41.200,150.172 41.200 C 147.269 41.200,147.200 41.223,147.200 42.200 C 147.200 43.178,147.133 43.200,144.200 43.200 C 141.267 43.200,141.200 43.222,141.200 44.200 C 141.200 45.178,141.133 45.200,138.200 45.200 C 135.267 45.200,135.200 45.222,135.200 46.200 C 135.200 47.133,135.067 47.200,133.200 47.200 C 131.333 47.200,131.200 47.267,131.200 48.200 C 131.200 49.178,131.133 49.200,128.200 49.200 C 125.267 49.200,125.200 49.222,125.200 50.200 C 125.200 51.133,125.067 51.200,123.200 51.200 C 121.333 51.200,121.200 51.267,121.200 52.200 C 121.200 53.133,121.067 53.200,119.200 53.200 C 117.345 53.200,117.200 53.271,117.200 54.178 C 117.200 55.061,117.015 55.168,115.300 55.278 C 113.679 55.382,113.381 55.532,113.272 56.300 C 113.180 56.951,112.876 57.200,112.172 57.200 C 111.402 57.200,111.200 57.408,111.200 58.200 C 111.200 59.133,111.067 59.200,109.200 59.200 C 107.333 59.200,107.200 59.267,107.200 60.200 C 107.200 61.072,107.025 61.200,105.829 61.200 C 104.527 61.200,103.200 62.022,103.200 62.829 C 103.200 63.033,102.750 63.200,102.200 63.200 C 101.400 63.200,101.200 63.400,101.200 64.200 C 101.200 65.000,101.000 65.200,100.200 65.200 C 99.400 65.200,99.200 65.400,99.200 66.200 C 99.200 67.133,99.067 67.200,97.200 67.200 C 95.333 67.200,95.200 67.267,95.200 68.200 C 95.200 69.000,95.000 69.200,94.200 69.200 C 93.400 69.200,93.200 69.400,93.200 70.200 C 93.200 71.000,93.000 71.200,92.200 71.200 C 91.400 71.200,91.200 71.400,91.200 72.200 C 91.200 73.133,91.067 73.200,89.200 73.200 C 87.333 73.200,87.200 73.267,87.200 74.200 C 87.200 75.000,87.000 75.200,86.200 75.200 C 85.400 75.200,85.200 75.400,85.200 76.200 C 85.200 77.000,85.000 77.200,84.200 77.200 C 83.400 77.200,83.200 77.400,83.200 78.200 C 83.200 79.000,83.000 79.200,82.200 79.200 C 81.400 79.200,81.200 79.400,81.200 80.200 C 81.200 81.000,81.000 81.200,80.200 81.200 C 79.400 81.200,79.200 81.400,79.200 82.200 C 79.200 83.000,79.000 83.200,78.200 83.200 C 77.400 83.200,77.200 83.400,77.200 84.200 C 77.200 85.000,77.000 85.200,76.200 85.200 C 75.400 85.200,75.200 85.400,75.200 86.200 C 75.200 87.000,75.000 87.200,74.200 87.200 C 73.400 87.200,73.200 87.400,73.200 88.200 C 73.200 89.000,73.000 89.200,72.200 89.200 C 71.400 89.200,71.200 89.400,71.200 90.200 C 71.200 91.000,71.000 91.200,70.200 91.200 C 69.400 91.200,69.200 91.400,69.200 92.200 C 69.200 93.000,69.000 93.200,68.200 93.200 C 67.400 93.200,67.200 93.400,67.200 94.200 C 67.200 95.000,67.000 95.200,66.200 95.200 C 65.267 95.200,65.200 95.333,65.200 97.200 C 65.200 99.067,65.133 99.200,64.200 99.200 C 63.400 99.200,63.200 99.400,63.200 100.200 C 63.200 101.000,63.000 101.200,62.200 101.200 C 61.400 101.200,61.200 101.400,61.200 102.200 C 61.200 103.000,61.000 103.200,60.200 103.200 C 59.267 103.200,59.200 103.333,59.200 105.200 C 59.200 107.067,59.133 107.200,58.200 107.200 C 57.400 107.200,57.200 107.400,57.200 108.200 C 57.200 109.000,57.000 109.200,56.200 109.200 C 55.400 109.200,55.200 109.400,55.200 110.200 C 55.200 110.750,55.033 111.200,54.829 111.200 C 54.022 111.200,53.200 112.527,53.200 113.829 C 53.200 115.025,53.072 115.200,52.200 115.200 C 51.267 115.200,51.200 115.333,51.200 117.200 C 51.200 119.067,51.133 119.200,50.200 119.200 C 49.408 119.200,49.200 119.402,49.200 120.172 C 49.200 120.876,48.951 121.180,48.300 121.272 C 47.532 121.381,47.382 121.679,47.278 123.300 C 47.168 125.015,47.061 125.200,46.178 125.200 C 45.271 125.200,45.200 125.345,45.200 127.200 C 45.200 129.067,45.133 129.200,44.200 129.200 C 43.267 129.200,43.200 129.333,43.200 131.200 C 43.200 133.067,43.133 133.200,42.200 133.200 C 41.222 133.200,41.200 133.267,41.200 136.200 C 41.200 139.133,41.178 139.200,40.200 139.200 C 39.267 139.200,39.200 139.333,39.200 141.200 C 39.200 143.067,39.133 143.200,38.200 143.200 C 37.222 143.200,37.200 143.267,37.200 146.200 C 37.200 149.133,37.178 149.200,36.200 149.200 C 35.222 149.200,35.200 149.267,35.200 152.200 C 35.200 155.133,35.178 155.200,34.200 155.200 C 33.223 155.200,33.200 155.269,33.200 158.172 C 33.200 160.950,33.141 161.153,32.300 161.272 C 31.446 161.393,31.394 161.600,31.286 165.300 C 31.173 169.147,31.158 169.200,30.186 169.200 L 29.200 169.200 29.200 174.200 C 29.200 177.010,29.037 179.200,28.829 179.200 C 27.196 179.200,27.200 179.129,27.200 208.000 C 27.200 236.871,27.196 236.800,28.829 236.800 C 29.037 236.800,29.200 238.990,29.200 241.800 L 29.200 246.800 30.200 246.800 L 31.200 246.800 31.200 250.800 L 31.200 254.800 32.200 254.800 C 33.178 254.800,33.200 254.867,33.200 257.800 C 33.200 260.733,33.222 260.800,34.200 260.800 C 35.178 260.800,35.200 260.867,35.200 263.800 C 35.200 266.733,35.222 266.800,36.200 266.800 C 37.178 266.800,37.200 266.867,37.200 269.800 C 37.200 272.733,37.222 272.800,38.200 272.800 C 39.133 272.800,39.200 272.933,39.200 274.800 C 39.200 276.667,39.267 276.800,40.200 276.800 C 41.178 276.800,41.200 276.867,41.200 279.800 C 41.200 282.733,41.222 282.800,42.200 282.800 C 43.133 282.800,43.200 282.933,43.200 284.800 C 43.200 286.667,43.267 286.800,44.200 286.800 C 45.133 286.800,45.200 286.933,45.200 288.800 C 45.200 290.655,45.271 290.800,46.178 290.800 C 47.061 290.800,47.168 290.985,47.278 292.700 C 47.382 294.321,47.532 294.619,48.300 294.728 C 48.951 294.820,49.200 295.124,49.200 295.828 C 49.200 296.598,49.408 296.800,50.200 296.800 C 51.133 296.800,51.200 296.933,51.200 298.800 C 51.200 300.667,51.267 300.800,52.200 300.800 C 53.072 300.800,53.200 300.975,53.200 302.171 C 53.200 303.473,54.022 304.800,54.829 304.800 C 55.033 304.800,55.200 305.250,55.200 305.800 C 55.200 306.600,55.400 306.800,56.200 306.800 C 57.000 306.800,57.200 307.000,57.200 307.800 C 57.200 308.600,57.400 308.800,58.200 308.800 C 59.133 308.800,59.200 308.933,59.200 310.800 C 59.200 312.667,59.267 312.800,60.200 312.800 C 61.000 312.800,61.200 313.000,61.200 313.800 C 61.200 314.600,61.400 314.800,62.200 314.800 C 63.000 314.800,63.200 315.000,63.200 315.800 C 63.200 316.600,63.400 316.800,64.200 316.800 C 65.133 316.800,65.200 316.933,65.200 318.800 C 65.200 320.667,65.267 320.800,66.200 320.800 C 67.000 320.800,67.200 321.000,67.200 321.800 C 67.200 322.600,67.400 322.800,68.200 322.800 C 69.000 322.800,69.200 323.000,69.200 323.800 C 69.200 324.600,69.400 324.800,70.200 324.800 C 71.000 324.800,71.200 325.000,71.200 325.800 C 71.200 326.600,71.400 326.800,72.200 326.800 C 73.000 326.800,73.200 327.000,73.200 327.800 C 73.200 328.600,73.400 328.800,74.200 328.800 C 75.000 328.800,75.200 329.000,75.200 329.800 C 75.200 330.600,75.400 330.800,76.200 330.800 C 77.000 330.800,77.200 331.000,77.200 331.800 C 77.200 332.600,77.400 332.800,78.200 332.800 C 79.000 332.800,79.200 333.000,79.200 333.800 C 79.200 334.600,79.400 334.800,80.200 334.800 C 81.000 334.800,81.200 335.000,81.200 335.800 C 81.200 336.600,81.400 336.800,82.200 336.800 C 83.000 336.800,83.200 337.000,83.200 337.800 C 83.200 338.600,83.400 338.800,84.200 338.800 C 85.000 338.800,85.200 339.000,85.200 339.800 C 85.200 340.600,85.400 340.800,86.200 340.800 C 87.000 340.800,87.200 341.000,87.200 341.800 C 87.200 342.733,87.333 342.800,89.200 342.800 C 91.067 342.800,91.200 342.867,91.200 343.800 C 91.200 344.600,91.400 344.800,92.200 344.800 C 93.000 344.800,93.200 345.000,93.200 345.800 C 93.200 346.600,93.400 346.800,94.200 346.800 C 95.000 346.800,95.200 347.000,95.200 347.800 C 95.200 348.733,95.333 348.800,97.200 348.800 C 99.067 348.800,99.200 348.867,99.200 349.800 C 99.200 350.600,99.400 350.800,100.200 350.800 C 101.000 350.800,101.200 351.000,101.200 351.800 C 101.200 352.600,101.400 352.800,102.200 352.800 C 102.750 352.800,103.200 352.967,103.200 353.171 C 103.200 353.978,104.527 354.800,105.829 354.800 C 107.025 354.800,107.200 354.928,107.200 355.800 C 107.200 356.733,107.333 356.800,109.200 356.800 C 111.067 356.800,111.200 356.867,111.200 357.800 C 111.200 358.592,111.402 358.800,112.172 358.800 C 112.876 358.800,113.180 359.049,113.272 359.700 C 113.381 360.468,113.679 360.618,115.300 360.722 C 117.015 360.832,117.200 360.939,117.200 361.822 C 117.200 362.729,117.345 362.800,119.200 362.800 C 121.067 362.800,121.200 362.867,121.200 363.800 C 121.200 364.733,121.333 364.800,123.200 364.800 C 125.067 364.800,125.200 364.867,125.200 365.800 C 125.200 366.778,125.267 366.800,128.200 366.800 C 131.133 366.800,131.200 366.822,131.200 367.800 C 131.200 368.733,131.333 368.800,133.200 368.800 C 135.067 368.800,135.200 368.867,135.200 369.800 C 135.200 370.778,135.267 370.800,138.200 370.800 C 141.133 370.800,141.200 370.822,141.200 371.800 C 141.200 372.778,141.267 372.800,144.200 372.800 C 147.133 372.800,147.200 372.822,147.200 373.800 C 147.200 374.778,147.267 374.800,150.200 374.800 C 153.133 374.800,153.200 374.822,153.200 375.800 L 153.200 376.800 157.200 376.800 L 161.200 376.800 161.200 377.800 L 161.200 378.800 166.200 378.800 C 169.010 378.800,171.200 378.963,171.200 379.171 C 171.200 380.804,171.129 380.800,200.000 380.800 C 228.871 380.800,228.800 380.804,228.800 379.171 C 228.800 378.963,230.990 378.800,233.800 378.800 L 238.800 378.800 238.800 377.800 L 238.800 376.800 242.800 376.800 L 246.800 376.800 246.800 375.800 C 246.800 374.822,246.867 374.800,249.800 374.800 C 252.720 374.800,252.800 374.774,252.800 373.817 C 252.800 372.867,252.906 372.830,255.900 372.717 C 258.769 372.609,259.010 372.533,259.128 371.700 C 259.246 370.866,259.458 370.800,262.020 370.800 C 264.620 370.800,264.799 370.742,265.031 369.820 C 265.241 368.981,265.543 368.823,267.138 368.720 C 268.720 368.618,269.019 368.465,269.128 367.700 C 269.246 366.867,269.459 366.800,272.000 366.800 C 274.541 366.800,274.754 366.733,274.872 365.900 C 274.981 365.135,275.280 364.982,276.862 364.880 C 278.457 364.777,278.759 364.619,278.969 363.780 C 279.183 362.927,279.442 362.800,280.964 362.800 C 282.485 362.800,282.745 362.673,282.959 361.823 C 283.163 361.007,283.484 360.826,284.902 360.723 C 286.298 360.622,286.622 360.444,286.725 359.724 C 286.812 359.111,287.172 358.811,287.925 358.724 C 288.679 358.637,289.037 358.337,289.125 357.721 C 289.231 356.979,289.544 356.823,291.125 356.721 C 292.721 356.618,293.019 356.466,293.128 355.700 C 293.226 355.006,293.518 354.800,294.399 354.800 C 295.493 354.800,296.800 353.928,296.800 353.198 C 296.800 353.008,297.295 352.796,297.900 352.727 C 298.688 352.636,299.036 352.344,299.128 351.700 C 299.220 351.049,299.524 350.800,300.228 350.800 C 300.998 350.800,301.200 350.592,301.200 349.800 C 301.200 348.881,301.347 348.800,303.000 348.800 C 304.653 348.800,304.800 348.719,304.800 347.800 C 304.800 347.000,305.000 346.800,305.800 346.800 C 306.600 346.800,306.800 346.600,306.800 345.800 C 306.800 345.000,307.000 344.800,307.800 344.800 C 308.594 344.800,308.800 344.599,308.800 343.822 C 308.800 342.939,308.985 342.832,310.700 342.722 C 312.321 342.618,312.619 342.468,312.728 341.700 C 312.820 341.049,313.124 340.800,313.828 340.800 C 314.598 340.800,314.800 340.592,314.800 339.800 C 314.800 339.000,315.000 338.800,315.800 338.800 C 316.600 338.800,316.800 338.600,316.800 337.800 C 316.800 337.000,317.000 336.800,317.800 336.800 C 318.600 336.800,318.800 336.600,318.800 335.800 C 318.800 335.000,319.000 334.800,319.800 334.800 C 320.600 334.800,320.800 334.600,320.800 333.800 C 320.800 333.000,321.000 332.800,321.800 332.800 C 322.600 332.800,322.800 332.600,322.800 331.800 C 322.800 331.000,323.000 330.800,323.800 330.800 C 324.600 330.800,324.800 330.600,324.800 329.800 C 324.800 329.000,325.000 328.800,325.800 328.800 C 326.600 328.800,326.800 328.600,326.800 327.800 C 326.800 327.000,327.000 326.800,327.800 326.800 C 328.600 326.800,328.800 326.600,328.800 325.800 C 328.800 325.000,329.000 324.800,329.800 324.800 C 330.600 324.800,330.800 324.600,330.800 323.800 C 330.800 323.000,331.000 322.800,331.800 322.800 C 332.592 322.800,332.800 322.598,332.800 321.828 C 332.800 321.124,333.049 320.820,333.700 320.728 C 334.468 320.619,334.618 320.321,334.722 318.700 C 334.832 316.985,334.939 316.800,335.822 316.800 C 336.599 316.800,336.800 316.594,336.800 315.800 C 336.800 315.000,337.000 314.800,337.800 314.800 C 338.600 314.800,338.800 314.600,338.800 313.800 C 338.800 313.000,339.000 312.800,339.800 312.800 C 340.733 312.800,340.800 312.667,340.800 310.800 C 340.800 308.933,340.867 308.800,341.800 308.800 C 342.600 308.800,342.800 308.600,342.800 307.800 C 342.800 307.000,343.000 306.800,343.800 306.800 C 344.600 306.800,344.800 306.600,344.800 305.800 C 344.800 305.250,344.967 304.800,345.171 304.800 C 345.978 304.800,346.800 303.473,346.800 302.171 C 346.800 300.975,346.928 300.800,347.800 300.800 C 348.733 300.800,348.800 300.667,348.800 298.800 C 348.800 296.933,348.867 296.800,349.800 296.800 C 350.592 296.800,350.800 296.598,350.800 295.828 C 350.800 295.124,351.049 294.820,351.700 294.728 C 352.468 294.619,352.618 294.321,352.722 292.700 C 352.832 290.985,352.939 290.800,353.822 290.800 C 354.729 290.800,354.800 290.655,354.800 288.800 C 354.800 286.933,354.867 286.800,355.800 286.800 C 356.733 286.800,356.800 286.667,356.800 284.800 C 356.800 282.933,356.867 282.800,357.800 282.800 C 358.778 282.800,358.800 282.733,358.800 279.800 C 358.800 276.867,358.822 276.800,359.800 276.800 C 360.733 276.800,360.800 276.667,360.800 274.800 C 360.800 272.933,360.867 272.800,361.800 272.800 C 362.778 272.800,362.800 272.733,362.800 269.800 C 362.800 266.867,362.822 266.800,363.800 266.800 C 364.778 266.800,364.800 266.733,364.800 263.800 C 364.800 260.867,364.822 260.800,365.800 260.800 C 366.778 260.800,366.800 260.733,366.800 257.800 C 366.800 254.867,366.822 254.800,367.800 254.800 L 368.800 254.800 368.800 250.800 L 368.800 246.800 369.800 246.800 L 370.800 246.800 370.800 241.800 C 370.800 238.990,370.963 236.800,371.171 236.800 C 372.804 236.800,372.800 236.871,372.800 208.000 C 372.800 179.129,372.804 179.200,371.171 179.200 C 370.963 179.200,370.800 177.010,370.800 174.200 L 370.800 169.200 369.800 169.200 L 368.800 169.200 368.800 165.200 L 368.800 161.200 367.800 161.200 C 366.822 161.200,366.800 161.133,366.800 158.200 C 366.800 155.267,366.778 155.200,365.800 155.200 C 364.822 155.200,364.800 155.133,364.800 152.200 C 364.800 149.267,364.778 149.200,363.800 149.200 C 362.822 149.200,362.800 149.133,362.800 146.200 C 362.800 143.267,362.778 143.200,361.800 143.200 C 360.867 143.200,360.800 143.067,360.800 141.200 C 360.800 139.333,360.733 139.200,359.800 139.200 C 358.822 139.200,358.800 139.133,358.800 136.200 C 358.800 133.267,358.778 133.200,357.800 133.200 C 356.867 133.200,356.800 133.067,356.800 131.200 C 356.800 129.333,356.733 129.200,355.800 129.200 C 354.867 129.200,354.800 129.067,354.800 127.200 C 354.800 125.345,354.729 125.200,353.822 125.200 C 352.939 125.200,352.832 125.015,352.722 123.300 C 352.618 121.679,352.468 121.381,351.700 121.272 C 351.049 121.180,350.800 120.876,350.800 120.172 C 350.800 119.402,350.592 119.200,349.800 119.200 C 348.867 119.200,348.800 119.067,348.800 117.200 C 348.800 115.333,348.733 115.200,347.800 115.200 C 346.928 115.200,346.800 115.025,346.800 113.829 C 346.800 112.527,345.978 111.200,345.171 111.200 C 344.967 111.200,344.800 110.750,344.800 110.200 C 344.800 109.400,344.600 109.200,343.800 109.200 C 343.000 109.200,342.800 109.000,342.800 108.200 C 342.800 107.400,342.600 107.200,341.800 107.200 C 340.867 107.200,340.800 107.067,340.800 105.200 C 340.800 103.333,340.733 103.200,339.800 103.200 C 339.000 103.200,338.800 103.000,338.800 102.200 C 338.800 101.400,338.600 101.200,337.800 101.200 C 337.000 101.200,336.800 101.000,336.800 100.200 C 336.800 99.400,336.600 99.200,335.800 99.200 C 334.867 99.200,334.800 99.067,334.800 97.200 C 334.800 95.333,334.733 95.200,333.800 95.200 C 333.000 95.200,332.800 95.000,332.800 94.200 C 332.800 93.400,332.600 93.200,331.800 93.200 C 331.000 93.200,330.800 93.000,330.800 92.200 C 330.800 91.400,330.600 91.200,329.800 91.200 C 329.000 91.200,328.800 91.000,328.800 90.200 C 328.800 89.400,328.600 89.200,327.800 89.200 C 327.000 89.200,326.800 89.000,326.800 88.200 C 326.800 87.400,326.600 87.200,325.800 87.200 C 325.000 87.200,324.800 87.000,324.800 86.200 C 324.800 85.400,324.600 85.200,323.800 85.200 C 323.000 85.200,322.800 85.000,322.800 84.200 C 322.800 83.400,322.600 83.200,321.800 83.200 C 321.000 83.200,320.800 83.000,320.800 82.200 C 320.800 81.400,320.600 81.200,319.800 81.200 C 319.000 81.200,318.800 81.000,318.800 80.200 C 318.800 79.400,318.600 79.200,317.800 79.200 C 317.000 79.200,316.800 79.000,316.800 78.200 C 316.800 77.400,316.600 77.200,315.800 77.200 C 315.000 77.200,314.800 77.000,314.800 76.200 C 314.800 75.400,314.600 75.200,313.800 75.200 C 313.000 75.200,312.800 75.000,312.800 74.200 C 312.800 73.267,312.667 73.200,310.800 73.200 C 308.933 73.200,308.800 73.133,308.800 72.200 C 308.800 71.400,308.600 71.200,307.800 71.200 C 307.000 71.200,306.800 71.000,306.800 70.200 C 306.800 69.400,306.600 69.200,305.800 69.200 C 305.000 69.200,304.800 69.000,304.800 68.200 C 304.800 67.284,304.651 67.200,303.028 67.200 C 301.495 67.200,301.238 67.079,301.128 66.300 C 301.047 65.730,300.679 65.354,300.125 65.275 C 299.579 65.198,299.202 64.821,299.125 64.275 C 299.037 63.657,298.677 63.363,297.900 63.273 C 297.295 63.204,296.800 62.992,296.800 62.802 C 296.800 62.076,295.495 61.200,294.415 61.200 C 293.545 61.200,293.229 60.971,293.036 60.200 C 292.815 59.322,292.569 59.200,291.020 59.200 C 289.495 59.200,289.238 59.078,289.128 58.300 C 289.037 57.662,288.687 57.364,287.925 57.276 C 287.172 57.189,286.812 56.889,286.725 56.276 C 286.622 55.556,286.298 55.378,284.902 55.277 C 283.484 55.174,283.163 54.993,282.959 54.177 C 282.745 53.327,282.485 53.200,280.964 53.200 C 279.442 53.200,279.183 53.073,278.969 52.220 C 278.759 51.381,278.457 51.223,276.862 51.120 C 275.280 51.018,274.981 50.865,274.872 50.100 C 274.754 49.267,274.541 49.200,272.000 49.200 C 269.459 49.200,269.246 49.133,269.128 48.300 C 269.019 47.535,268.720 47.382,267.138 47.280 C 265.543 47.177,265.241 47.019,265.031 46.180 C 264.799 45.258,264.620 45.200,262.020 45.200 C 259.458 45.200,259.246 45.134,259.128 44.300 C 259.010 43.467,258.769 43.391,255.900 43.283 C 252.906 43.170,252.800 43.133,252.800 42.183 C 252.800 41.226,252.720 41.200,249.800 41.200 C 246.867 41.200,246.800 41.178,246.800 40.200 L 246.800 39.200 242.800 39.200 L 238.800 39.200 238.800 38.200 L 238.800 37.200 233.800 37.200 C 230.990 37.200,228.800 37.037,228.800 36.829 C 228.800 36.624,228.517 36.174,228.171 35.829 C 227.214 34.871,172.786 34.871,171.829 35.829 M159.944 120.809 C 160.903 121.244,161.863 121.600,162.078 121.600 C 162.523 121.600,165.790 123.846,166.878 124.900 C 167.275 125.285,167.768 125.600,167.973 125.600 C 168.178 125.600,168.460 125.960,168.600 126.400 C 168.740 126.840,169.110 127.200,169.424 127.200 C 169.737 127.200,170.207 127.542,170.467 127.959 C 171.055 128.901,172.501 128.387,173.904 126.737 C 175.687 124.642,180.937 125.008,184.517 127.475 C 186.471 128.821,190.400 132.763,190.400 133.377 C 190.400 133.616,190.759 134.481,191.197 135.299 C 192.187 137.146,192.659 142.634,192.048 145.200 C 191.645 146.895,191.712 147.194,193.210 150.338 C 194.084 152.175,194.800 153.938,194.800 154.258 C 194.800 154.578,195.070 155.362,195.400 156.000 C 195.730 156.638,196.262 158.114,196.582 159.280 C 197.587 162.943,199.148 166.748,199.990 167.590 C 200.472 168.072,200.800 168.928,200.800 169.705 C 200.800 170.675,201.031 171.112,201.700 171.405 C 202.204 171.626,202.661 172.236,202.740 172.789 C 202.816 173.333,203.311 174.292,203.840 174.920 C 204.368 175.548,204.800 176.309,204.800 176.613 C 204.800 176.916,205.250 177.614,205.800 178.164 C 206.350 178.714,206.800 179.615,206.800 180.168 C 206.800 180.751,207.124 181.345,207.573 181.586 C 207.998 181.813,208.473 182.404,208.628 182.900 C 208.783 183.395,209.335 184.309,209.855 184.931 C 210.375 185.553,210.800 186.337,210.800 186.673 C 210.800 187.009,211.250 187.819,211.800 188.473 C 212.350 189.127,212.800 189.942,212.800 190.285 C 212.800 190.628,213.250 191.325,213.800 191.835 C 214.428 192.417,214.800 193.197,214.800 193.934 C 214.800 194.772,215.029 195.167,215.603 195.317 C 216.099 195.447,216.497 195.987,216.647 196.735 C 216.780 197.400,217.319 198.348,217.844 198.842 C 218.370 199.335,218.800 200.060,218.800 200.452 C 218.800 200.843,219.250 201.614,219.800 202.164 C 220.350 202.714,220.800 203.622,220.800 204.182 C 220.800 204.742,220.967 205.200,221.171 205.200 C 221.874 205.200,222.800 206.459,222.800 207.414 C 222.800 207.941,223.131 208.549,223.536 208.766 C 223.941 208.983,224.835 209.685,225.522 210.327 C 228.766 213.358,233.632 212.478,236.619 208.320 C 240.412 203.041,241.769 196.934,242.779 180.600 C 243.314 171.949,243.786 168.364,244.908 164.449 L 245.753 161.498 244.696 159.449 C 241.751 153.738,243.869 147.969,249.081 147.506 C 250.526 147.378,251.491 147.028,252.243 146.361 C 254.798 144.091,261.633 137.134,264.389 134.000 C 270.797 126.710,273.560 124.283,276.517 123.348 L 279.210 122.496 282.100 123.378 C 290.623 125.981,297.127 137.567,293.740 144.116 C 293.123 145.309,293.128 145.636,293.819 149.150 C 294.533 152.779,294.533 153.052,293.843 157.135 C 292.788 163.370,291.031 167.426,284.813 177.979 C 283.450 180.294,279.661 188.204,278.289 191.600 C 276.074 197.085,270.260 215.073,269.045 220.200 C 268.732 221.520,267.820 224.940,267.019 227.800 C 262.875 242.586,260.822 252.448,259.609 263.400 C 257.365 283.662,257.130 285.227,255.515 290.600 C 250.449 307.453,231.727 311.339,222.565 297.439 C 220.882 294.885,219.961 293.353,219.536 292.400 C 219.290 291.850,218.642 290.410,218.096 289.200 C 217.550 287.990,215.936 284.030,214.510 280.400 C 210.019 268.972,209.742 268.293,207.820 264.000 C 201.939 250.865,193.857 235.418,190.530 230.952 C 185.365 224.022,179.309 222.855,174.871 227.936 C 172.978 230.104,170.800 233.182,170.800 233.690 C 170.800 233.978,170.384 234.841,169.876 235.607 C 169.368 236.373,168.719 237.810,168.434 238.800 C 168.149 239.790,167.332 242.130,166.619 244.000 C 163.466 252.273,161.486 263.962,162.465 268.527 C 162.992 270.985,162.710 273.795,161.839 274.757 C 161.478 275.155,160.932 276.909,160.626 278.654 C 158.039 293.365,138.688 308.196,123.600 307.030 C 113.676 306.264,108.464 300.806,107.538 290.210 C 107.264 287.078,106.932 285.460,106.377 284.563 C 105.428 283.027,105.313 278.726,106.180 277.200 C 106.493 276.650,107.214 275.274,107.783 274.142 C 108.780 272.161,113.421 267.322,115.853 265.728 C 116.463 265.329,117.349 264.642,117.822 264.201 C 120.368 261.830,123.386 259.365,124.055 259.110 C 124.475 258.950,124.925 258.273,125.060 257.598 C 125.195 256.926,125.731 256.040,126.252 255.630 C 126.774 255.220,127.200 254.568,127.200 254.180 C 127.200 253.793,127.650 252.886,128.200 252.164 C 128.750 251.443,129.200 250.560,129.200 250.200 C 129.200 249.337,129.981 247.880,130.658 247.480 C 130.956 247.304,131.200 246.797,131.200 246.354 C 131.200 245.356,131.936 243.907,132.658 243.480 C 132.956 243.304,133.200 242.621,133.200 241.962 C 133.200 241.217,133.578 240.385,134.200 239.764 C 134.823 239.141,135.200 238.310,135.200 237.563 C 135.200 236.796,135.561 236.027,136.200 235.435 C 136.899 234.787,137.200 234.088,137.200 233.110 C 137.200 232.278,137.605 231.115,138.200 230.238 C 138.750 229.428,139.200 228.421,139.200 228.001 C 139.200 226.845,140.060 225.200,140.664 225.200 C 141.016 225.200,141.202 224.684,141.205 223.700 C 141.208 222.843,141.636 221.454,142.205 220.459 C 142.752 219.502,143.200 218.279,143.200 217.741 C 143.200 217.203,143.625 216.339,144.144 215.820 C 144.766 215.198,145.160 214.236,145.299 212.997 C 145.416 211.963,145.891 210.603,146.356 209.975 C 146.820 209.346,147.200 208.367,147.200 207.798 C 147.200 207.228,147.649 206.315,148.200 205.764 C 148.917 205.046,149.200 204.332,149.200 203.238 C 149.200 202.270,149.566 201.173,150.200 200.238 C 150.750 199.428,151.200 198.257,151.200 197.636 C 151.200 197.016,151.563 196.047,152.006 195.483 C 152.532 194.814,152.947 193.397,153.200 191.401 C 153.413 189.720,153.687 188.183,153.808 187.987 C 153.929 187.791,153.848 186.190,153.627 184.429 C 152.751 177.442,148.922 172.969,139.392 167.805 C 132.545 164.094,129.473 161.432,128.699 158.539 C 128.295 157.027,128.092 156.800,127.146 156.800 C 126.156 156.800,123.200 154.580,123.200 153.837 C 123.200 153.689,122.816 153.048,122.346 152.412 C 121.127 150.764,121.412 145.892,122.837 144.000 C 126.291 139.417,140.156 126.453,143.864 124.341 C 144.709 123.859,145.760 123.158,146.200 122.782 C 146.640 122.406,147.720 121.873,148.600 121.597 C 149.480 121.321,150.380 120.959,150.600 120.791 C 151.956 119.758,157.651 119.769,159.944 120.809 M152.204 125.194 C 152.052 125.440,152.455 125.494,153.280 125.337 C 155.049 125.000,155.201 124.800,153.690 124.800 C 153.007 124.800,152.338 124.977,152.204 125.194 " stroke="none" fill="#a704f7" fill-rule="evenodd"></path><path id="path2" d="M150.400 121.479 C 148.750 122.055,146.891 122.947,146.269 123.462 C 145.647 123.978,144.968 124.400,144.760 124.400 C 144.552 124.400,143.621 125.089,142.691 125.930 C 141.761 126.772,140.592 127.736,140.094 128.072 C 138.194 129.355,125.168 142.131,124.008 143.850 C 120.922 148.423,122.094 153.272,126.682 154.917 C 130.092 156.139,132.470 155.469,138.094 151.704 C 146.485 146.085,149.777 146.506,157.407 154.175 C 164.284 161.086,165.270 162.988,164.127 167.128 C 163.018 171.146,162.123 173.805,161.172 175.911 C 160.748 176.852,160.400 177.934,160.400 178.317 C 160.400 178.699,160.051 179.662,159.625 180.457 C 159.199 181.252,158.548 182.959,158.177 184.251 C 157.807 185.543,157.364 186.780,157.193 187.000 C 157.022 187.220,156.596 188.368,156.247 189.551 C 155.898 190.735,155.425 191.929,155.196 192.205 C 154.966 192.482,154.532 193.583,154.231 194.654 C 153.747 196.370,152.249 200.283,151.188 202.600 C 150.986 203.040,150.567 204.120,150.256 205.000 C 149.662 206.682,148.271 210.170,147.384 212.200 C 147.096 212.860,146.666 214.030,146.429 214.800 C 146.192 215.570,145.549 217.086,144.999 218.168 C 144.450 219.250,144.000 220.431,144.000 220.791 C 144.000 221.152,143.736 221.796,143.413 222.224 C 143.090 222.651,142.820 223.247,142.813 223.550 C 142.801 224.070,140.862 228.717,139.204 232.200 C 138.785 233.080,138.342 234.282,138.220 234.872 C 138.099 235.462,137.729 236.214,137.399 236.543 C 137.070 236.873,136.800 237.390,136.800 237.693 C 136.800 237.995,136.367 239.133,135.838 240.221 C 133.472 245.088,130.400 251.666,130.400 251.863 C 130.400 251.983,129.425 253.817,128.234 255.940 C 126.108 259.728,125.123 260.792,122.479 262.159 C 121.752 262.535,120.852 263.111,120.479 263.439 C 120.105 263.766,118.720 264.864,117.400 265.878 C 110.849 270.909,106.392 276.728,106.404 280.234 C 106.429 287.589,122.535 297.266,129.736 294.253 C 131.987 293.312,136.000 289.443,136.000 288.215 C 136.000 288.110,136.450 287.040,137.000 285.837 C 137.550 284.635,138.000 283.474,138.000 283.256 C 138.000 280.401,142.982 278.304,150.417 278.029 L 156.633 277.800 158.262 276.510 C 160.168 275.000,160.967 272.321,160.341 269.537 C 159.988 267.965,157.767 263.188,157.209 262.800 C 157.051 262.690,156.134 261.340,155.171 259.800 C 154.209 258.260,153.028 256.570,152.548 256.044 C 151.673 255.087,151.866 253.424,153.078 251.478 C 153.350 251.041,153.795 249.857,156.009 243.689 C 156.425 242.528,156.905 241.358,157.074 241.089 C 157.243 240.820,157.680 239.790,158.044 238.800 C 158.409 237.810,159.276 235.560,159.971 233.800 C 160.667 232.040,161.518 229.797,161.863 228.815 C 162.207 227.834,162.829 226.396,163.245 225.621 C 163.660 224.846,164.000 223.985,164.000 223.708 C 164.000 223.430,164.732 221.448,165.627 219.302 C 166.521 217.156,167.530 214.500,167.868 213.400 C 168.206 212.300,168.732 210.950,169.036 210.400 C 169.340 209.850,169.843 208.680,170.153 207.800 C 170.464 206.920,171.293 204.670,171.997 202.800 C 174.489 196.175,175.653 192.977,176.246 191.124 C 176.576 190.092,177.343 188.221,177.951 186.966 L 179.055 184.683 180.228 186.597 C 182.550 190.389,188.193 200.074,189.895 203.189 C 190.432 204.172,191.216 205.460,191.636 206.050 C 192.056 206.641,192.400 207.386,192.400 207.708 C 192.400 208.029,192.729 208.721,193.132 209.246 C 195.058 211.757,214.800 250.494,214.800 251.762 C 214.800 251.907,215.610 253.654,216.600 255.643 C 217.590 257.632,218.400 259.437,218.400 259.655 C 218.400 259.872,218.829 260.983,219.353 262.125 C 220.793 265.259,224.400 273.892,224.400 274.204 C 224.400 274.356,224.687 275.083,225.037 275.822 C 225.564 276.931,225.598 277.517,225.237 279.202 C 223.562 287.013,229.402 296.000,236.154 296.000 C 240.052 296.000,246.988 291.038,250.588 285.673 C 252.228 283.227,252.506 278.379,251.223 274.581 C 249.914 270.706,250.145 267.078,252.623 252.600 C 253.833 245.529,255.071 239.493,256.602 233.200 C 256.950 231.770,257.420 229.790,257.646 228.800 C 259.207 221.979,259.917 219.169,260.829 216.200 C 261.235 214.880,261.834 212.630,262.161 211.200 C 262.855 208.163,264.057 203.674,265.160 200.000 C 265.589 198.570,266.409 195.780,266.981 193.800 C 268.533 188.427,269.777 184.458,271.998 177.791 C 273.099 174.486,274.001 171.516,274.002 171.191 C 274.004 170.866,274.276 170.080,274.607 169.445 C 274.939 168.810,275.500 167.280,275.855 166.045 C 276.873 162.503,277.410 161.728,282.807 156.000 C 296.287 141.695,296.904 134.886,285.568 125.496 C 280.653 121.423,273.569 123.529,268.234 130.647 C 260.375 141.134,253.237 147.707,249.196 148.177 C 241.478 149.075,242.377 157.103,250.950 163.832 L 252.500 165.049 251.877 167.824 C 251.534 169.351,250.778 172.490,250.197 174.800 C 249.616 177.110,248.818 180.440,248.423 182.200 C 248.029 183.960,247.416 186.390,247.061 187.600 C 246.706 188.810,246.155 191.060,245.837 192.600 C 245.518 194.140,244.998 196.390,244.681 197.600 C 244.364 198.810,243.911 200.700,243.674 201.800 C 242.210 208.617,241.872 210.057,241.187 212.400 C 240.768 213.830,240.318 215.720,240.186 216.600 C 240.054 217.480,239.518 220.090,238.995 222.400 C 238.473 224.710,237.848 227.500,237.607 228.600 C 236.827 232.155,236.493 233.199,235.794 234.265 L 235.108 235.312 229.838 224.756 C 224.447 213.958,218.604 202.901,216.967 200.400 C 216.463 199.630,215.930 198.505,215.782 197.900 C 215.634 197.295,215.366 196.800,215.186 196.800 C 215.006 196.800,214.383 195.855,213.801 194.700 C 213.220 193.545,211.863 191.160,210.785 189.400 C 209.707 187.640,208.359 185.390,207.788 184.400 C 207.218 183.410,205.868 181.160,204.788 179.400 C 203.709 177.640,202.362 175.390,201.795 174.400 C 201.229 173.410,199.918 171.320,198.883 169.756 C 197.847 168.192,196.252 165.762,195.337 164.356 C 194.422 162.950,193.288 161.260,192.817 160.600 C 188.049 153.921,187.554 152.644,188.793 150.214 C 190.728 146.418,191.388 136.617,189.899 133.776 C 186.537 127.358,177.180 123.816,173.947 127.737 C 171.842 130.291,171.426 130.324,169.280 128.102 C 162.575 121.156,156.969 119.190,150.400 121.479 M159.919 125.388 C 162.525 126.637,167.965 131.477,171.397 135.600 C 175.759 140.841,175.656 140.858,175.977 134.814 C 176.235 129.941,176.380 129.600,178.198 129.600 C 181.086 129.600,185.385 132.701,186.867 135.854 C 188.028 138.323,187.171 146.179,185.444 148.907 C 183.764 151.560,183.997 154.259,186.151 157.104 C 187.107 158.367,188.185 159.940,188.547 160.600 C 188.909 161.260,190.013 162.970,191.000 164.400 C 191.987 165.830,193.471 167.980,194.297 169.178 C 195.124 170.375,196.070 171.830,196.400 172.411 C 196.730 172.991,197.404 174.081,197.899 174.833 C 198.393 175.585,198.798 176.425,198.799 176.700 C 198.799 176.975,198.990 177.200,199.222 177.200 C 199.455 177.200,200.000 178.003,200.434 178.983 C 200.868 179.964,201.400 180.877,201.617 181.011 C 201.835 181.145,202.280 181.827,202.607 182.527 C 202.935 183.227,203.742 184.610,204.402 185.600 C 205.061 186.590,205.970 188.120,206.422 189.000 C 206.873 189.880,207.771 191.410,208.417 192.400 C 209.063 193.390,209.963 194.920,210.417 195.800 C 210.870 196.680,211.765 198.300,212.405 199.400 C 213.044 200.500,213.952 202.120,214.421 203.000 C 214.890 203.880,215.790 205.500,216.419 206.600 C 217.049 207.700,217.816 209.140,218.123 209.800 C 218.430 210.460,218.810 211.270,218.967 211.600 C 219.124 211.930,219.779 213.100,220.423 214.200 C 221.067 215.300,221.869 216.830,222.206 217.600 C 222.544 218.370,222.999 219.270,223.218 219.600 C 223.437 219.930,223.887 220.830,224.218 221.600 C 224.549 222.370,224.999 223.270,225.218 223.600 C 225.437 223.930,225.887 224.830,226.218 225.600 C 226.549 226.370,226.999 227.270,227.218 227.600 C 227.437 227.930,227.887 228.830,228.218 229.600 C 228.549 230.370,228.999 231.270,229.218 231.600 C 229.437 231.930,229.896 232.830,230.239 233.600 C 230.582 234.370,231.298 235.890,231.831 236.979 C 232.364 238.067,232.800 239.170,232.800 239.430 C 232.800 239.689,233.050 240.110,233.356 240.363 C 233.661 240.617,234.125 241.674,234.386 242.712 C 234.647 243.750,235.094 244.870,235.379 245.200 C 235.665 245.530,236.123 246.497,236.396 247.348 C 236.969 249.131,237.422 248.762,237.796 246.208 C 237.926 245.324,238.386 242.890,238.818 240.800 C 239.251 238.710,239.863 235.560,240.178 233.800 C 240.777 230.460,241.759 225.735,242.424 223.000 C 242.638 222.120,243.177 219.607,243.620 217.415 C 244.064 215.223,244.691 212.613,245.013 211.615 C 245.336 210.617,245.859 208.540,246.176 207.000 C 246.493 205.460,247.200 202.310,247.747 200.000 C 248.294 197.690,249.027 194.540,249.376 193.000 C 249.724 191.460,250.200 189.480,250.432 188.600 C 250.850 187.017,252.155 181.809,253.587 176.000 C 253.994 174.350,254.714 171.560,255.185 169.800 C 256.170 166.129,256.315 163.242,255.541 162.763 C 247.941 158.066,245.079 151.600,250.600 151.600 C 253.592 151.600,259.190 146.974,266.008 138.869 C 266.993 137.697,268.250 136.226,268.800 135.600 C 269.350 134.973,270.250 133.862,270.800 133.131 C 276.044 126.154,279.659 125.286,284.922 129.744 C 293.097 136.666,291.898 141.291,278.284 155.361 C 274.440 159.334,272.938 161.768,272.210 165.205 C 272.047 165.972,271.596 167.140,271.208 167.800 C 270.820 168.460,270.392 169.734,270.257 170.632 C 270.123 171.529,269.668 173.149,269.247 174.232 C 268.496 176.160,267.600 178.980,265.443 186.200 C 264.851 188.180,263.935 191.240,263.408 193.000 C 262.517 195.969,261.405 199.911,259.796 205.800 C 259.436 207.120,258.814 209.550,258.415 211.200 C 258.017 212.850,257.124 216.270,256.433 218.800 C 255.741 221.330,254.894 224.840,254.550 226.600 C 254.207 228.360,253.675 230.430,253.368 231.200 C 253.062 231.970,252.623 233.860,252.393 235.400 C 252.163 236.940,251.723 239.010,251.417 240.000 C 251.110 240.990,250.567 243.587,250.209 245.772 C 249.851 247.957,249.447 249.925,249.310 250.145 C 248.968 250.698,247.218 262.913,246.780 267.800 C 246.394 272.119,246.551 273.649,247.539 275.157 C 248.745 276.996,248.437 282.280,247.013 284.200 C 245.329 286.472,242.068 289.524,240.246 290.537 C 239.391 291.011,238.311 291.622,237.846 291.894 C 233.104 294.665,227.461 286.053,229.176 278.663 C 229.478 277.362,229.329 276.597,228.205 273.663 C 225.785 267.346,225.175 265.811,224.606 264.600 C 223.139 261.477,221.600 257.974,221.600 257.754 C 221.600 257.621,220.816 255.866,219.858 253.856 C 218.900 251.845,217.976 249.750,217.805 249.200 C 217.635 248.650,217.159 247.722,216.748 247.138 C 216.336 246.554,216.000 245.958,216.000 245.813 C 216.000 245.155,208.086 229.058,204.587 222.600 C 203.395 220.400,202.299 218.330,202.151 218.000 C 202.003 217.670,201.638 216.860,201.341 216.200 C 201.043 215.540,200.326 214.190,199.747 213.200 C 199.168 212.210,198.268 210.590,197.746 209.600 C 197.224 208.610,196.627 207.530,196.419 207.200 C 196.212 206.870,195.807 206.116,195.521 205.525 C 194.988 204.426,189.311 194.360,187.715 191.684 C 187.228 190.868,186.439 189.486,185.962 188.612 C 185.485 187.739,184.782 186.569,184.400 186.012 C 184.018 185.456,182.673 183.413,181.410 181.474 C 179.472 178.497,178.137 177.200,177.009 177.200 C 176.933 177.200,176.749 177.965,176.601 178.900 C 176.453 179.835,175.991 181.324,175.574 182.210 C 175.157 183.095,174.553 184.625,174.231 185.610 C 173.910 186.594,173.085 188.930,172.398 190.800 C 171.712 192.670,170.796 195.268,170.363 196.573 C 169.931 197.878,169.411 199.146,169.209 199.389 C 169.006 199.633,168.641 200.722,168.398 201.810 C 168.154 202.897,167.715 204.060,167.422 204.394 C 167.129 204.727,166.757 205.630,166.596 206.400 C 166.434 207.170,165.984 208.430,165.595 209.200 C 165.206 209.970,164.616 211.520,164.282 212.645 C 163.949 213.769,163.480 215.029,163.241 215.445 C 162.821 216.174,162.394 217.295,160.745 222.000 C 160.321 223.210,159.620 224.855,159.187 225.654 C 158.754 226.454,158.400 227.361,158.400 227.670 C 158.400 227.978,158.050 228.916,157.623 229.754 C 157.196 230.592,156.729 231.846,156.584 232.539 C 156.440 233.233,155.999 234.363,155.604 235.050 C 155.209 235.738,154.591 237.313,154.232 238.550 C 153.872 239.788,153.423 240.800,153.233 240.800 C 153.044 240.800,152.767 241.475,152.619 242.300 C 152.470 243.125,152.018 244.520,151.614 245.400 C 151.210 246.280,150.659 247.720,150.389 248.600 C 150.120 249.480,149.677 250.470,149.406 250.800 C 148.312 252.133,147.479 256.901,148.264 257.340 C 148.895 257.693,149.525 258.310,151.392 260.400 C 151.686 260.730,152.167 261.540,152.461 262.200 C 152.754 262.860,153.311 263.749,153.697 264.175 C 154.084 264.602,154.400 265.159,154.400 265.414 C 154.400 265.669,154.759 266.291,155.197 266.797 C 156.753 268.591,157.315 272.674,156.140 273.651 C 155.673 274.040,153.663 274.266,149.240 274.426 C 139.972 274.761,136.043 277.052,134.023 283.300 C 133.756 284.125,133.372 284.800,133.169 284.800 C 132.966 284.800,132.799 285.115,132.799 285.500 C 132.798 285.885,132.459 286.740,132.047 287.400 C 128.920 292.401,125.332 292.273,115.201 286.800 C 109.139 283.525,108.782 278.891,114.159 273.264 C 116.645 270.663,125.427 264.000,126.370 264.000 C 127.149 264.000,129.327 261.778,130.070 260.226 C 130.974 258.339,132.016 256.446,132.878 255.128 C 133.212 254.618,133.621 253.750,133.788 253.200 C 133.954 252.650,134.986 250.310,136.081 248.000 C 137.176 245.690,138.518 242.810,139.062 241.600 C 139.606 240.390,140.400 238.734,140.826 237.921 C 141.252 237.107,141.600 236.206,141.600 235.918 C 141.600 235.629,142.050 234.548,142.600 233.515 C 143.150 232.482,143.601 231.403,143.602 231.118 C 143.602 230.833,144.142 229.520,144.800 228.200 C 145.458 226.880,145.998 225.568,145.998 225.284 C 145.999 225.000,146.355 224.072,146.789 223.221 C 147.223 222.370,147.835 220.983,148.150 220.137 C 148.686 218.694,150.234 214.773,152.072 210.200 C 153.191 207.417,154.733 203.398,155.659 200.856 C 156.088 199.677,156.683 198.327,156.980 197.856 C 157.278 197.385,157.650 196.370,157.807 195.600 C 157.964 194.830,158.338 193.750,158.637 193.200 C 158.937 192.650,159.529 191.210,159.952 190.000 C 160.375 188.790,161.208 186.540,161.803 185.000 C 162.398 183.460,163.150 181.390,163.474 180.400 C 163.798 179.410,164.395 177.790,164.800 176.800 C 165.583 174.887,166.397 172.502,167.602 168.600 C 168.009 167.280,168.575 165.616,168.858 164.901 C 169.430 163.463,169.132 162.720,166.629 159.340 C 165.953 158.428,165.040 157.179,164.600 156.565 C 164.160 155.951,163.350 154.950,162.800 154.342 C 162.250 153.733,161.260 152.607,160.600 151.838 C 157.978 148.787,152.285 144.938,149.512 144.344 C 146.142 143.621,143.564 144.160,139.800 146.376 C 138.700 147.024,137.137 147.921,136.327 148.371 C 135.517 148.821,134.742 149.371,134.604 149.593 C 133.978 150.607,130.051 152.099,128.685 151.842 C 125.898 151.319,125.039 148.499,126.869 145.878 C 129.054 142.748,144.118 128.807,147.241 127.024 C 153.299 123.567,155.520 123.280,159.919 125.388 " stroke="none" fill="#d1ad4b" fill-rule="evenodd"></path><path id="path3" d="M151.800 120.289 C 151.360 120.398,150.820 120.623,150.600 120.791 C 150.380 120.959,149.480 121.321,148.600 121.597 C 147.720 121.873,146.640 122.406,146.200 122.782 C 145.760 123.158,144.709 123.859,143.864 124.341 C 140.156 126.453,126.291 139.417,122.837 144.000 C 121.412 145.892,121.127 150.764,122.346 152.412 C 122.816 153.048,123.200 153.689,123.200 153.837 C 123.200 154.580,126.156 156.800,127.146 156.800 C 128.092 156.800,128.295 157.027,128.699 158.539 C 129.473 161.432,132.545 164.094,139.392 167.805 C 148.922 172.969,152.751 177.442,153.627 184.429 C 153.848 186.190,153.929 187.791,153.808 187.987 C 153.687 188.183,153.413 189.720,153.200 191.401 C 152.947 193.397,152.532 194.814,152.006 195.483 C 151.563 196.047,151.200 197.016,151.200 197.636 C 151.200 198.257,150.750 199.428,150.200 200.238 C 149.566 201.173,149.200 202.270,149.200 203.238 C 149.200 204.332,148.917 205.046,148.200 205.764 C 147.649 206.315,147.200 207.228,147.200 207.798 C 147.200 208.367,146.820 209.346,146.356 209.975 C 145.891 210.603,145.416 211.963,145.299 212.997 C 145.160 214.236,144.766 215.198,144.144 215.820 C 143.625 216.339,143.200 217.203,143.200 217.741 C 143.200 218.279,142.752 219.502,142.205 220.459 C 141.636 221.454,141.208 222.843,141.205 223.700 C 141.202 224.684,141.016 225.200,140.664 225.200 C 140.060 225.200,139.200 226.845,139.200 228.001 C 139.200 228.421,138.750 229.428,138.200 230.238 C 137.605 231.115,137.200 232.278,137.200 233.110 C 137.200 234.088,136.899 234.787,136.200 235.435 C 135.561 236.027,135.200 236.796,135.200 237.563 C 135.200 238.310,134.823 239.141,134.200 239.764 C 133.578 240.385,133.200 241.217,133.200 241.962 C 133.200 242.621,132.956 243.304,132.658 243.480 C 131.936 243.907,131.200 245.356,131.200 246.354 C 131.200 246.797,130.956 247.304,130.658 247.480 C 129.981 247.880,129.200 249.337,129.200 250.200 C 129.200 250.560,128.750 251.443,128.200 252.164 C 127.650 252.886,127.200 253.793,127.200 254.180 C 127.200 254.568,126.774 255.220,126.252 255.630 C 125.731 256.040,125.195 256.926,125.060 257.598 C 124.925 258.273,124.475 258.950,124.055 259.110 C 123.386 259.365,120.368 261.830,117.822 264.201 C 117.349 264.642,116.463 265.329,115.853 265.728 C 113.421 267.322,108.780 272.161,107.783 274.142 C 107.214 275.274,106.493 276.650,106.180 277.200 C 105.313 278.726,105.428 283.027,106.377 284.563 C 106.932 285.460,107.264 287.078,107.538 290.210 C 108.464 300.806,113.676 306.264,123.600 307.030 C 138.688 308.196,158.039 293.365,160.626 278.654 C 160.932 276.909,161.478 275.155,161.839 274.757 C 162.710 273.795,162.992 270.985,162.465 268.527 C 161.486 263.962,163.466 252.273,166.619 244.000 C 167.332 242.130,168.149 239.790,168.434 238.800 C 168.719 237.810,169.368 236.373,169.876 235.607 C 170.384 234.841,170.800 233.978,170.800 233.690 C 170.800 233.182,172.978 230.104,174.871 227.936 C 178.270 224.045,183.383 223.934,187.868 227.656 C 191.056 230.302,200.145 246.859,207.820 264.000 C 209.742 268.293,210.019 268.972,214.510 280.400 C 215.936 284.030,217.550 287.990,218.096 289.200 C 218.642 290.410,219.290 291.850,219.536 292.400 C 219.961 293.353,220.882 294.885,222.565 297.439 C 231.727 311.339,250.449 307.453,255.515 290.600 C 257.130 285.227,257.365 283.662,259.609 263.400 C 260.822 252.448,262.875 242.586,267.019 227.800 C 267.820 224.940,268.732 221.520,269.045 220.200 C 270.260 215.073,276.074 197.085,278.289 191.600 C 279.661 188.204,283.450 180.294,284.813 177.979 C 291.031 167.426,292.788 163.370,293.843 157.135 C 294.533 153.052,294.533 152.779,293.819 149.150 C 293.128 145.636,293.123 145.309,293.740 144.116 C 297.127 137.567,290.623 125.981,282.100 123.378 L 279.210 122.496 276.517 123.348 C 273.560 124.283,270.797 126.710,264.389 134.000 C 261.633 137.134,254.798 144.091,252.243 146.361 C 251.491 147.028,250.526 147.378,249.081 147.506 C 243.869 147.969,241.751 153.738,244.696 159.449 L 245.753 161.498 244.908 164.449 C 243.786 168.364,243.314 171.949,242.779 180.600 C 241.769 196.934,240.412 203.041,236.619 208.320 C 233.632 212.478,228.766 213.358,225.522 210.327 C 224.835 209.685,223.941 208.983,223.536 208.766 C 223.131 208.549,222.800 207.941,222.800 207.414 C 222.800 206.459,221.874 205.200,221.171 205.200 C 220.967 205.200,220.800 204.742,220.800 204.182 C 220.800 203.622,220.350 202.714,219.800 202.164 C 219.250 201.614,218.800 200.843,218.800 200.452 C 218.800 200.060,218.370 199.335,217.844 198.842 C 217.319 198.348,216.780 197.400,216.647 196.735 C 216.497 195.987,216.099 195.447,215.603 195.317 C 215.029 195.167,214.800 194.772,214.800 193.934 C 214.800 193.197,214.428 192.417,213.800 191.835 C 213.250 191.325,212.800 190.628,212.800 190.285 C 212.800 189.942,212.350 189.127,211.800 188.473 C 211.250 187.819,210.800 187.009,210.800 186.673 C 210.800 186.337,210.375 185.553,209.855 184.931 C 209.335 184.309,208.783 183.395,208.628 182.900 C 208.473 182.404,207.998 181.813,207.573 181.586 C 207.124 181.345,206.800 180.751,206.800 180.168 C 206.800 179.615,206.350 178.714,205.800 178.164 C 205.250 177.614,204.800 176.916,204.800 176.613 C 204.800 176.309,204.368 175.548,203.840 174.920 C 203.311 174.292,202.816 173.333,202.740 172.789 C 202.661 172.236,202.204 171.626,201.700 171.405 C 201.031 171.112,200.800 170.675,200.800 169.705 C 200.800 168.928,200.472 168.072,199.990 167.590 C 199.148 166.748,197.587 162.943,196.582 159.280 C 196.262 158.114,195.730 156.638,195.400 156.000 C 195.070 155.362,194.800 154.578,194.800 154.258 C 194.800 153.938,194.084 152.175,193.210 150.338 C 191.712 147.194,191.645 146.895,192.048 145.200 C 192.659 142.634,192.187 137.146,191.197 135.299 C 190.759 134.481,190.400 133.616,190.400 133.377 C 190.400 132.763,186.471 128.821,184.517 127.475 C 180.937 125.008,175.687 124.642,173.904 126.737 C 172.501 128.387,171.055 128.901,170.467 127.959 C 170.207 127.542,169.737 127.200,169.424 127.200 C 169.110 127.200,168.740 126.840,168.600 126.400 C 168.460 125.960,168.178 125.600,167.973 125.600 C 167.768 125.600,167.275 125.285,166.878 124.900 C 165.790 123.846,162.523 121.600,162.078 121.600 C 161.863 121.600,160.903 121.244,159.944 120.809 C 158.256 120.043,153.926 119.767,151.800 120.289 M160.180 121.567 C 163.306 122.771,166.004 124.708,169.280 128.102 C 171.426 130.324,171.842 130.291,173.947 127.737 C 177.180 123.816,186.537 127.358,189.899 133.776 C 191.388 136.617,190.728 146.418,188.793 150.214 C 187.554 152.644,188.049 153.921,192.817 160.600 C 193.288 161.260,194.422 162.950,195.337 164.356 C 196.252 165.762,197.847 168.192,198.883 169.756 C 199.918 171.320,201.229 173.410,201.795 174.400 C 202.362 175.390,203.709 177.640,204.788 179.400 C 205.868 181.160,207.218 183.410,207.788 184.400 C 208.359 185.390,209.707 187.640,210.785 189.400 C 211.863 191.160,213.220 193.545,213.801 194.700 C 214.383 195.855,215.006 196.800,215.186 196.800 C 215.366 196.800,215.634 197.295,215.782 197.900 C 215.930 198.505,216.463 199.630,216.967 200.400 C 218.604 202.901,224.447 213.958,229.838 224.756 L 235.108 235.312 235.794 234.265 C 236.493 233.199,236.827 232.155,237.607 228.600 C 237.848 227.500,238.473 224.710,238.995 222.400 C 239.518 220.090,240.054 217.480,240.186 216.600 C 240.318 215.720,240.768 213.830,241.187 212.400 C 241.872 210.057,242.210 208.617,243.674 201.800 C 243.911 200.700,244.364 198.810,244.681 197.600 C 244.998 196.390,245.518 194.140,245.837 192.600 C 246.155 191.060,246.706 188.810,247.061 187.600 C 247.416 186.390,248.029 183.960,248.423 182.200 C 248.818 180.440,249.616 177.110,250.197 174.800 C 250.778 172.490,251.534 169.351,251.877 167.824 L 252.500 165.049 250.950 163.832 C 242.377 157.103,241.478 149.075,249.196 148.177 C 253.237 147.707,260.375 141.134,268.234 130.647 C 273.569 123.529,280.653 121.423,285.568 125.496 C 296.904 134.886,296.287 141.695,282.807 156.000 C 277.410 161.728,276.873 162.503,275.855 166.045 C 275.500 167.280,274.939 168.810,274.607 169.445 C 274.276 170.080,274.004 170.866,274.002 171.191 C 274.001 171.516,273.099 174.486,271.998 177.791 C 269.777 184.458,268.533 188.427,266.981 193.800 C 266.409 195.780,265.589 198.570,265.160 200.000 C 264.057 203.674,262.855 208.163,262.161 211.200 C 261.834 212.630,261.235 214.880,260.829 216.200 C 259.917 219.169,259.207 221.979,257.646 228.800 C 257.420 229.790,256.950 231.770,256.602 233.200 C 255.071 239.493,253.833 245.529,252.623 252.600 C 250.145 267.078,249.914 270.706,251.223 274.581 C 252.506 278.379,252.228 283.227,250.588 285.673 C 246.988 291.038,240.052 296.000,236.154 296.000 C 229.402 296.000,223.562 287.013,225.237 279.202 C 225.598 277.517,225.564 276.931,225.037 275.822 C 224.687 275.083,224.400 274.356,224.400 274.204 C 224.400 273.892,220.793 265.259,219.353 262.125 C 218.829 260.983,218.400 259.872,218.400 259.655 C 218.400 259.437,217.590 257.632,216.600 255.643 C 215.610 253.654,214.800 251.907,214.800 251.762 C 214.800 250.494,195.058 211.757,193.132 209.246 C 192.729 208.721,192.400 208.034,192.400 207.718 C 192.400 207.402,191.860 206.359,191.200 205.400 C 190.540 204.441,189.999 203.508,189.998 203.328 C 189.997 203.148,189.458 202.190,188.800 201.200 C 188.142 200.210,187.603 199.600,187.602 199.844 C 187.601 200.088,188.050 200.951,188.600 201.762 C 189.150 202.572,189.600 203.472,189.600 203.762 C 189.600 204.051,190.050 204.951,190.600 205.762 C 191.150 206.572,191.600 207.663,191.600 208.185 C 191.600 209.549,192.001 210.400,192.643 210.400 C 193.035 210.400,193.200 210.924,193.200 212.171 L 193.200 213.942 190.995 212.614 C 186.642 209.992,181.119 208.202,175.748 207.672 L 173.000 207.400 172.880 204.860 C 172.800 203.180,172.949 202.030,173.320 201.460 C 173.627 200.987,174.009 199.880,174.167 199.000 C 174.325 198.120,174.535 196.950,174.633 196.400 C 174.732 195.850,174.470 196.300,174.051 197.400 C 171.823 203.260,170.660 206.363,170.153 207.800 C 169.843 208.680,169.340 209.850,169.036 210.400 C 168.732 210.950,168.206 212.300,167.868 213.400 C 167.530 214.500,166.521 217.156,165.627 219.302 C 164.732 221.448,164.000 223.430,164.000 223.708 C 164.000 223.985,163.660 224.846,163.245 225.621 C 162.829 226.396,162.207 227.834,161.863 228.815 C 161.518 229.797,160.667 232.040,159.971 233.800 C 159.276 235.560,158.409 237.810,158.044 238.800 C 157.680 239.790,157.243 240.820,157.074 241.089 C 156.905 241.358,156.425 242.528,156.009 243.689 C 153.795 249.857,153.350 251.041,153.078 251.478 C 151.866 253.424,151.673 255.087,152.548 256.044 C 153.028 256.570,154.209 258.260,155.171 259.800 C 156.134 261.340,157.051 262.690,157.209 262.800 C 157.767 263.188,159.988 267.965,160.341 269.537 C 160.967 272.321,160.168 275.000,158.262 276.510 L 156.633 277.800 150.417 278.029 C 142.982 278.304,138.000 280.401,138.000 283.256 C 138.000 283.474,137.550 284.635,137.000 285.837 C 136.450 287.040,136.000 288.110,136.000 288.215 C 136.000 289.443,131.987 293.312,129.736 294.253 C 122.535 297.266,106.429 287.589,106.404 280.234 C 106.392 276.728,110.849 270.909,117.400 265.878 C 118.720 264.864,120.105 263.766,120.479 263.439 C 120.852 263.111,121.752 262.535,122.479 262.159 C 125.123 260.792,126.108 259.728,128.234 255.940 C 129.425 253.817,130.400 251.983,130.400 251.863 C 130.400 251.666,133.472 245.088,135.838 240.221 C 136.367 239.133,136.800 237.995,136.800 237.693 C 136.800 237.390,137.070 236.873,137.399 236.543 C 137.729 236.214,138.099 235.462,138.220 234.872 C 138.342 234.282,138.785 233.080,139.204 232.200 C 140.862 228.717,142.801 224.070,142.813 223.550 C 142.820 223.247,143.090 222.651,143.413 222.224 C 143.736 221.796,144.000 221.152,144.000 220.791 C 144.000 220.431,144.450 219.250,144.999 218.168 C 145.549 217.086,146.192 215.570,146.429 214.800 C 146.666 214.030,147.096 212.860,147.384 212.200 C 148.271 210.170,149.662 206.682,150.256 205.000 C 150.567 204.120,150.986 203.040,151.188 202.600 C 152.249 200.283,153.747 196.370,154.231 194.654 C 154.532 193.583,154.966 192.482,155.196 192.205 C 155.425 191.929,155.898 190.735,156.247 189.551 C 156.596 188.368,157.022 187.220,157.193 187.000 C 157.364 186.780,157.807 185.543,158.177 184.251 C 158.548 182.959,159.199 181.252,159.625 180.457 C 160.051 179.662,160.400 178.699,160.400 178.317 C 160.400 177.934,160.748 176.852,161.172 175.911 C 162.642 172.656,164.814 165.466,164.768 164.009 C 164.731 162.810,164.640 163.064,164.011 166.120 C 163.682 167.721,163.172 168.811,162.367 169.634 C 161.725 170.290,161.200 171.202,161.200 171.659 C 161.200 172.239,160.709 171.756,159.579 170.063 C 158.687 168.728,156.395 166.142,154.486 164.318 C 145.357 155.593,144.674 154.653,144.879 151.096 L 145.000 149.000 147.295 148.880 C 149.124 148.785,149.760 148.918,150.423 149.536 C 150.881 149.962,151.738 150.412,152.328 150.535 C 152.917 150.658,154.660 151.867,156.200 153.223 L 159.000 155.688 156.298 153.072 C 149.573 146.562,146.155 146.305,138.094 151.704 C 132.470 155.469,130.092 156.139,126.682 154.917 C 122.094 153.272,120.922 148.423,124.008 143.850 C 125.168 142.131,138.194 129.355,140.094 128.072 C 140.592 127.736,141.761 126.772,142.691 125.930 C 143.621 125.089,144.552 124.400,144.760 124.400 C 144.968 124.400,145.647 123.978,146.269 123.462 C 149.700 120.618,155.620 119.811,160.180 121.567 M152.800 124.390 C 150.000 125.290,146.420 127.344,143.841 129.531 C 126.858 143.932,122.299 150.644,128.685 151.842 C 130.051 152.099,133.978 150.607,134.604 149.593 C 134.742 149.371,135.517 148.821,136.327 148.371 C 137.137 147.921,138.700 147.024,139.800 146.376 C 143.564 144.160,146.142 143.621,149.512 144.344 C 152.285 144.938,157.978 148.787,160.600 151.838 C 161.260 152.607,162.250 153.733,162.800 154.342 C 163.350 154.950,164.160 155.951,164.600 156.565 C 165.040 157.179,165.953 158.428,166.629 159.340 C 169.132 162.720,169.430 163.463,168.858 164.901 C 168.575 165.616,168.009 167.280,167.602 168.600 C 166.397 172.502,165.583 174.887,164.800 176.800 C 164.395 177.790,163.798 179.410,163.474 180.400 C 163.150 181.390,162.398 183.460,161.803 185.000 C 161.208 186.540,160.375 188.790,159.952 190.000 C 159.529 191.210,158.937 192.650,158.637 193.200 C 158.338 193.750,157.964 194.830,157.807 195.600 C 157.650 196.370,157.278 197.385,156.980 197.856 C 156.683 198.327,156.088 199.677,155.659 200.856 C 154.733 203.398,153.191 207.417,152.072 210.200 C 150.234 214.773,148.686 218.694,148.150 220.137 C 147.835 220.983,147.223 222.370,146.789 223.221 C 146.355 224.072,145.999 225.000,145.998 225.284 C 145.998 225.568,145.458 226.880,144.800 228.200 C 144.142 229.520,143.602 230.833,143.602 231.118 C 143.601 231.403,143.150 232.482,142.600 233.515 C 142.050 234.548,141.600 235.629,141.600 235.918 C 141.600 236.206,141.252 237.107,140.826 237.921 C 140.400 238.734,139.606 240.390,139.062 241.600 C 138.518 242.810,137.176 245.690,136.081 248.000 C 134.986 250.310,133.954 252.650,133.788 253.200 C 133.621 253.750,133.212 254.618,132.878 255.128 C 132.016 256.446,130.974 258.339,130.070 260.226 C 129.327 261.778,127.149 264.000,126.370 264.000 C 125.427 264.000,116.645 270.663,114.159 273.264 C 108.782 278.891,109.139 283.525,115.201 286.800 C 125.332 292.273,128.920 292.401,132.047 287.400 C 132.459 286.740,132.798 285.885,132.799 285.500 C 132.799 285.115,132.966 284.800,133.169 284.800 C 133.372 284.800,133.756 284.125,134.023 283.300 C 136.043 277.052,139.972 274.761,149.240 274.426 C 153.663 274.266,155.673 274.040,156.140 273.651 C 157.315 272.674,156.753 268.591,155.197 266.797 C 154.759 266.291,154.400 265.669,154.400 265.414 C 154.400 265.159,154.084 264.602,153.697 264.175 C 153.311 263.749,152.754 262.860,152.461 262.200 C 152.167 261.540,151.686 260.730,151.392 260.400 C 149.525 258.310,148.895 257.693,148.264 257.340 C 147.479 256.901,148.312 252.133,149.406 250.800 C 149.677 250.470,150.120 249.480,150.389 248.600 C 150.659 247.720,151.210 246.280,151.614 245.400 C 152.018 244.520,152.470 243.125,152.619 242.300 C 152.767 241.475,153.044 240.800,153.233 240.800 C 153.423 240.800,153.872 239.788,154.232 238.550 C 154.591 237.313,155.209 235.738,155.604 235.050 C 155.999 234.363,156.440 233.233,156.584 232.539 C 156.729 231.846,157.196 230.592,157.623 229.754 C 158.050 228.916,158.400 227.978,158.400 227.670 C 158.400 227.361,158.754 226.454,159.187 225.654 C 159.620 224.855,160.321 223.210,160.745 222.000 C 162.394 217.295,162.821 216.174,163.241 215.445 C 163.480 215.029,163.949 213.769,164.282 212.645 C 164.616 211.520,165.206 209.970,165.595 209.200 C 165.984 208.430,166.434 207.170,166.596 206.400 C 166.757 205.630,167.129 204.727,167.422 204.394 C 167.715 204.060,168.154 202.897,168.398 201.810 C 168.641 200.722,169.006 199.633,169.209 199.389 C 169.411 199.146,169.931 197.878,170.363 196.573 C 170.796 195.268,171.712 192.670,172.398 190.800 C 173.085 188.930,173.910 186.594,174.231 185.610 C 174.553 184.625,175.157 183.095,175.574 182.210 C 175.991 181.324,176.453 179.835,176.601 178.900 C 176.749 177.965,176.933 177.200,177.009 177.200 C 178.137 177.200,179.472 178.497,181.410 181.474 C 182.673 183.413,184.018 185.456,184.400 186.012 C 184.782 186.569,185.485 187.739,185.962 188.612 C 186.439 189.486,187.228 190.868,187.715 191.684 C 189.311 194.360,194.988 204.426,195.521 205.525 C 195.807 206.116,196.212 206.870,196.419 207.200 C 196.627 207.530,197.224 208.610,197.746 209.600 C 198.268 210.590,199.168 212.210,199.747 213.200 C 200.326 214.190,201.043 215.540,201.341 216.200 C 201.638 216.860,202.003 217.670,202.151 218.000 C 202.299 218.330,203.395 220.400,204.587 222.600 C 208.086 229.058,216.000 245.155,216.000 245.813 C 216.000 245.958,216.336 246.554,216.748 247.138 C 217.159 247.722,217.635 248.650,217.805 249.200 C 217.976 249.750,218.900 251.845,219.858 253.856 C 220.816 255.866,221.600 257.621,221.600 257.754 C 221.600 257.974,223.139 261.477,224.606 264.600 C 225.175 265.811,225.785 267.346,228.205 273.663 C 229.329 276.597,229.478 277.362,229.176 278.663 C 227.461 286.053,233.104 294.665,237.846 291.894 C 238.311 291.622,239.391 291.011,240.246 290.537 C 242.068 289.524,245.329 286.472,247.013 284.200 C 248.437 282.280,248.745 276.996,247.539 275.157 C 246.551 273.649,246.394 272.119,246.780 267.800 C 247.218 262.913,248.968 250.698,249.310 250.145 C 249.447 249.925,249.851 247.957,250.209 245.772 C 250.567 243.587,251.110 240.990,251.417 240.000 C 251.723 239.010,252.163 236.940,252.393 235.400 C 252.623 233.860,253.062 231.970,253.368 231.200 C 253.675 230.430,254.207 228.360,254.550 226.600 C 254.894 224.840,255.741 221.330,256.433 218.800 C 257.124 216.270,258.017 212.850,258.415 211.200 C 258.814 209.550,259.436 207.120,259.796 205.800 C 261.405 199.911,262.517 195.969,263.408 193.000 C 263.935 191.240,264.851 188.180,265.443 186.200 C 267.600 178.980,268.496 176.160,269.247 174.232 C 269.668 173.149,270.123 171.529,270.257 170.632 C 270.392 169.734,270.820 168.460,271.208 167.800 C 271.596 167.140,272.047 165.972,272.210 165.205 C 272.938 161.768,274.440 159.334,278.284 155.361 C 291.898 141.291,293.097 136.666,284.922 129.744 C 279.659 125.286,276.044 126.154,270.800 133.131 C 270.250 133.862,269.350 134.973,268.800 135.600 C 268.250 136.226,266.993 137.697,266.008 138.869 C 259.190 146.974,253.592 151.600,250.600 151.600 C 245.079 151.600,247.941 158.066,255.541 162.763 C 256.315 163.242,256.170 166.129,255.185 169.800 C 254.714 171.560,253.994 174.350,253.587 176.000 C 252.155 181.809,250.850 187.017,250.432 188.600 C 250.200 189.480,249.724 191.460,249.376 193.000 C 249.027 194.540,248.294 197.690,247.747 200.000 C 247.200 202.310,246.493 205.460,246.176 207.000 C 245.859 208.540,245.336 210.617,245.013 211.615 C 244.691 212.613,244.064 215.223,243.620 217.415 C 243.177 219.607,242.638 222.120,242.424 223.000 C 241.759 225.735,240.777 230.460,240.178 233.800 C 239.863 235.560,239.251 238.710,238.818 240.800 C 238.386 242.890,237.926 245.324,237.796 246.208 C 237.422 248.762,236.969 249.131,236.396 247.348 C 236.123 246.497,235.665 245.530,235.379 245.200 C 235.094 244.870,234.647 243.750,234.386 242.712 C 234.125 241.674,233.661 240.617,233.356 240.363 C 233.050 240.110,232.800 239.689,232.800 239.430 C 232.800 239.170,232.364 238.067,231.831 236.979 C 231.298 235.890,230.582 234.370,230.239 233.600 C 229.896 232.830,229.437 231.930,229.218 231.600 C 228.999 231.270,228.549 230.370,228.218 229.600 C 227.887 228.830,227.437 227.930,227.218 227.600 C 226.999 227.270,226.549 226.370,226.218 225.600 C 225.887 224.830,225.437 223.930,225.218 223.600 C 224.999 223.270,224.549 222.370,224.218 221.600 C 223.887 220.830,223.437 219.930,223.218 219.600 C 222.999 219.270,222.544 218.370,222.206 217.600 C 221.869 216.830,221.067 215.300,220.423 214.200 C 219.779 213.100,219.124 211.930,218.967 211.600 C 218.810 211.270,218.430 210.460,218.123 209.800 C 217.816 209.140,217.049 207.700,216.419 206.600 C 215.790 205.500,214.890 203.880,214.421 203.000 C 213.952 202.120,213.044 200.500,212.405 199.400 C 211.765 198.300,210.870 196.680,210.417 195.800 C 209.963 194.920,209.063 193.390,208.417 192.400 C 207.771 191.410,206.873 189.880,206.422 189.000 C 205.970 188.120,205.061 186.590,204.402 185.600 C 203.742 184.610,202.935 183.227,202.607 182.527 C 202.280 181.827,201.835 181.145,201.617 181.011 C 201.400 180.877,200.868 179.964,200.434 178.983 C 200.000 178.003,199.455 177.200,199.222 177.200 C 198.990 177.200,198.799 176.975,198.799 176.700 C 198.798 176.425,198.393 175.585,197.899 174.833 C 197.404 174.081,196.730 172.991,196.400 172.411 C 196.070 171.830,195.124 170.375,194.297 169.178 C 193.471 167.980,191.987 165.830,191.000 164.400 C 190.013 162.970,188.909 161.260,188.547 160.600 C 188.185 159.940,187.107 158.367,186.151 157.104 C 183.997 154.259,183.764 151.560,185.444 148.907 C 187.171 146.179,188.028 138.323,186.867 135.854 C 185.385 132.701,181.086 129.600,178.198 129.600 C 176.380 129.600,176.235 129.941,175.977 134.814 C 175.656 140.858,175.759 140.841,171.397 135.600 C 164.179 126.928,157.475 122.888,152.800 124.390 M159.450 125.875 C 162.932 127.793,166.959 131.456,171.024 136.400 C 171.838 137.390,173.092 138.806,173.812 139.547 L 175.120 140.894 175.852 139.776 C 176.409 138.926,176.622 137.668,176.738 134.529 L 176.891 130.400 178.567 130.400 C 180.904 130.400,185.116 133.509,186.041 135.916 C 187.006 138.429,186.264 145.901,184.764 148.779 C 183.285 151.617,183.516 156.800,185.123 156.800 C 185.289 156.800,185.638 157.295,185.900 157.900 C 186.161 158.505,187.011 159.810,187.788 160.800 C 188.565 161.790,189.325 162.870,189.477 163.200 C 189.630 163.530,190.575 164.980,191.577 166.423 C 193.644 169.398,193.925 169.826,195.627 172.600 C 196.302 173.700,197.370 175.410,198.000 176.400 C 199.588 178.895,201.766 182.519,201.966 183.000 C 202.058 183.220,202.929 184.640,203.901 186.157 C 204.873 187.674,205.789 189.204,205.938 189.557 C 206.086 189.911,206.835 191.253,207.603 192.539 C 209.826 196.262,211.148 198.571,213.821 203.400 C 214.430 204.500,215.340 206.120,215.844 207.000 C 219.272 212.991,233.115 240.900,233.799 243.200 C 235.922 250.342,237.649 251.181,238.633 245.548 C 238.941 243.780,239.277 242.198,239.380 242.033 C 239.482 241.867,239.850 239.767,240.198 237.366 C 240.545 234.965,241.084 232.229,241.395 231.288 C 241.705 230.346,242.172 228.096,242.431 226.288 C 242.689 224.479,243.046 222.817,243.222 222.593 C 243.399 222.370,243.833 220.480,244.188 218.393 C 244.543 216.307,245.079 214.060,245.379 213.400 C 245.678 212.740,246.126 210.874,246.373 209.253 C 246.620 207.633,247.007 205.960,247.234 205.537 C 247.460 205.113,247.917 203.213,248.249 201.314 C 248.580 199.415,249.088 197.397,249.378 196.831 C 249.667 196.264,250.119 194.450,250.382 192.800 C 250.644 191.150,251.096 189.260,251.385 188.600 C 251.674 187.940,252.121 186.156,252.378 184.636 C 252.635 183.116,253.098 181.383,253.407 180.786 C 253.716 180.189,254.163 178.485,254.400 177.000 C 254.637 175.515,255.093 173.793,255.414 173.173 C 255.734 172.554,256.179 170.757,256.403 169.179 C 256.627 167.602,256.955 166.052,257.132 165.735 C 257.719 164.687,257.154 162.787,256.051 162.095 C 248.705 157.490,246.259 152.891,250.852 152.320 C 253.604 151.979,255.134 150.991,259.400 146.807 C 263.890 142.403,265.377 140.787,269.348 136.000 C 275.580 128.485,276.456 127.772,279.361 127.837 C 283.494 127.930,289.200 133.734,289.200 137.844 C 289.200 141.851,286.728 145.380,276.967 155.311 C 273.000 159.347,272.148 160.654,271.571 163.583 C 271.310 164.912,270.961 166.000,270.796 166.000 C 270.349 166.000,269.670 167.955,269.372 170.100 C 269.228 171.145,268.964 172.000,268.786 172.000 C 268.411 172.000,267.785 173.898,267.400 176.200 C 267.253 177.080,266.872 178.090,266.554 178.445 C 266.236 178.800,265.868 180.060,265.736 181.245 C 265.605 182.430,265.176 183.940,264.784 184.600 C 264.391 185.260,263.943 186.700,263.788 187.800 C 263.633 188.900,263.175 190.610,262.771 191.600 C 262.366 192.590,261.849 194.460,261.621 195.755 C 261.393 197.050,261.021 198.334,260.793 198.608 C 260.565 198.883,260.115 200.488,259.792 202.175 C 259.469 203.862,259.014 205.600,258.780 206.036 C 258.547 206.473,258.097 208.183,257.780 209.836 C 257.464 211.490,257.018 213.192,256.789 213.620 C 256.561 214.047,256.188 215.433,255.962 216.699 C 255.736 217.964,255.205 220.170,254.783 221.600 C 254.360 223.030,253.745 225.550,253.416 227.200 C 253.087 228.850,252.640 230.920,252.421 231.800 C 251.371 236.034,250.729 238.947,249.997 242.800 C 249.557 245.110,249.012 247.540,248.784 248.200 C 248.556 248.860,248.107 251.401,247.786 253.846 C 247.465 256.291,246.910 259.081,246.553 260.046 C 245.514 262.847,245.517 275.194,246.556 276.347 C 247.768 277.693,247.682 281.466,246.400 283.112 C 244.270 285.848,239.994 289.600,239.007 289.600 C 238.741 289.600,238.198 289.960,237.800 290.400 C 236.947 291.343,234.987 291.464,234.653 290.594 C 234.525 290.261,233.966 289.815,233.410 289.604 C 232.855 289.393,232.400 288.956,232.400 288.633 C 232.400 288.310,232.000 287.765,231.511 287.423 C 230.670 286.834,230.612 286.447,230.411 280.171 C 230.234 274.597,230.096 273.484,229.546 273.177 C 229.178 272.971,228.777 272.044,228.629 271.052 C 228.484 270.084,228.026 268.985,227.612 268.610 C 227.197 268.236,226.736 267.206,226.587 266.322 C 226.438 265.438,225.999 264.399,225.612 264.012 C 225.226 263.626,224.790 262.673,224.644 261.895 C 224.498 261.118,224.047 260.058,223.642 259.541 C 223.236 259.023,222.778 258.023,222.624 257.319 C 222.471 256.614,222.014 255.618,221.611 255.105 C 221.207 254.592,220.678 253.434,220.436 252.533 C 220.193 251.631,219.744 250.686,219.439 250.432 C 219.134 250.179,218.773 249.379,218.637 248.656 C 218.501 247.932,218.028 246.952,217.587 246.478 C 217.145 246.003,216.677 245.084,216.547 244.435 C 216.417 243.786,215.983 242.903,215.582 242.473 C 215.181 242.043,214.727 241.016,214.572 240.191 C 214.417 239.365,213.996 238.396,213.636 238.036 C 213.275 237.675,212.750 236.611,212.468 235.669 C 212.186 234.728,211.713 233.865,211.417 233.751 C 211.121 233.638,210.766 232.945,210.629 232.213 C 210.491 231.480,210.050 230.458,209.648 229.941 C 209.245 229.423,208.701 228.339,208.438 227.532 C 208.174 226.725,207.710 225.857,207.405 225.604 C 207.101 225.352,206.740 224.636,206.603 224.014 C 206.466 223.392,206.015 222.576,205.600 222.200 C 205.185 221.824,204.733 221.004,204.595 220.377 C 204.457 219.750,204.023 218.824,203.631 218.319 C 203.238 217.813,202.697 216.728,202.429 215.906 C 202.161 215.084,201.760 214.299,201.538 214.162 C 201.316 214.024,200.795 213.122,200.381 212.156 C 199.967 211.190,199.456 210.400,199.246 210.400 C 199.036 210.400,198.741 209.842,198.591 209.159 C 198.441 208.477,198.003 207.603,197.617 207.217 C 197.231 206.831,196.788 205.995,196.633 205.358 C 196.378 204.315,195.663 203.054,193.594 199.992 C 193.219 199.438,192.776 198.538,192.610 197.992 C 192.444 197.447,191.989 196.640,191.600 196.200 C 191.211 195.760,190.757 194.950,190.591 194.400 C 190.426 193.850,189.865 192.891,189.345 192.269 C 188.825 191.647,188.400 190.882,188.400 190.569 C 188.400 190.256,188.077 189.677,187.683 189.283 C 187.288 188.888,186.727 187.988,186.434 187.283 C 186.142 186.577,185.747 186.000,185.557 186.000 C 185.366 186.000,184.954 185.386,184.640 184.635 C 184.327 183.884,183.769 182.939,183.401 182.535 C 183.033 182.131,182.025 180.678,181.159 179.307 C 178.357 174.865,176.531 174.679,175.641 178.744 C 175.418 179.765,174.867 181.313,174.418 182.185 C 173.968 183.056,173.600 184.115,173.600 184.537 C 173.600 184.960,173.264 185.867,172.854 186.553 C 172.443 187.239,171.897 188.672,171.639 189.737 C 171.381 190.803,170.929 192.063,170.635 192.537 C 170.341 193.012,169.891 194.272,169.635 195.337 C 169.379 196.403,168.929 197.663,168.635 198.137 C 168.341 198.612,167.904 199.810,167.664 200.800 C 167.424 201.790,166.862 203.313,166.414 204.185 C 165.966 205.056,165.600 206.115,165.600 206.537 C 165.600 206.960,165.259 207.867,164.843 208.553 C 164.427 209.239,163.959 210.430,163.804 211.200 C 163.649 211.970,163.180 213.195,162.761 213.923 C 162.343 214.650,162.000 215.569,162.000 215.963 C 162.000 216.358,161.571 217.488,161.046 218.475 C 160.522 219.461,159.962 220.883,159.803 221.634 C 159.643 222.385,159.185 223.630,158.783 224.400 C 158.382 225.170,157.838 226.520,157.575 227.400 C 157.311 228.280,156.958 229.180,156.789 229.400 C 156.620 229.620,156.207 230.700,155.871 231.800 C 155.213 233.957,153.945 237.238,152.780 239.800 C 152.380 240.680,151.790 242.210,151.469 243.200 C 151.147 244.190,150.401 246.260,149.811 247.800 C 149.220 249.340,148.479 251.320,148.165 252.200 C 147.851 253.080,147.415 254.113,147.197 254.495 C 146.345 255.984,146.725 257.488,148.179 258.387 C 148.938 258.856,149.670 259.591,149.806 260.020 C 149.942 260.449,150.193 260.800,150.363 260.800 C 150.534 260.800,151.157 261.655,151.748 262.700 C 153.254 265.361,153.660 266.037,154.539 267.359 C 155.537 268.858,155.998 270.946,155.634 272.315 L 155.344 273.400 148.513 273.600 C 142.927 273.764,141.547 273.920,140.941 274.460 C 140.534 274.823,139.570 275.384,138.800 275.707 C 136.705 276.585,134.028 279.506,133.491 281.500 C 133.240 282.435,132.906 283.200,132.750 283.200 C 132.594 283.200,132.152 284.055,131.769 285.100 C 131.386 286.145,130.860 287.180,130.601 287.400 C 130.342 287.620,129.915 288.205,129.651 288.700 C 129.060 289.810,123.756 290.025,122.000 289.010 C 121.450 288.692,120.550 288.229,120.000 287.982 C 115.243 285.842,113.331 284.494,111.755 282.172 L 110.746 280.684 111.633 278.313 C 113.018 274.607,119.822 268.432,126.848 264.502 C 129.227 263.171,130.231 261.883,132.227 257.600 C 132.586 256.830,133.109 255.930,133.389 255.600 C 133.670 255.270,134.124 254.280,134.400 253.400 C 134.676 252.520,135.127 251.530,135.403 251.200 C 135.679 250.870,136.037 250.150,136.198 249.600 C 136.359 249.050,136.813 248.060,137.207 247.400 C 137.601 246.740,138.149 245.435,138.425 244.500 C 138.701 243.565,139.064 242.800,139.232 242.800 C 139.400 242.800,139.756 242.125,140.023 241.300 C 140.291 240.475,140.934 238.991,141.455 238.003 C 141.975 237.015,142.400 235.914,142.400 235.557 C 142.400 235.200,142.743 234.472,143.161 233.940 C 143.580 233.407,144.137 232.168,144.399 231.186 C 144.660 230.204,145.111 229.130,145.400 228.800 C 145.689 228.470,146.137 227.406,146.395 226.436 C 146.654 225.466,147.100 224.296,147.388 223.836 C 147.676 223.376,148.134 222.280,148.408 221.400 C 148.681 220.520,149.049 219.616,149.226 219.391 C 149.515 219.023,150.589 216.332,152.257 211.800 C 152.581 210.920,153.196 209.468,153.623 208.574 C 154.050 207.679,154.400 206.687,154.400 206.368 C 154.400 206.049,154.743 205.148,155.163 204.365 C 155.582 203.583,156.153 202.145,156.432 201.171 C 156.710 200.197,157.167 199.127,157.446 198.794 C 157.726 198.460,158.155 197.293,158.400 196.200 C 158.645 195.107,159.081 193.940,159.369 193.606 C 159.657 193.273,160.021 192.463,160.177 191.806 C 160.334 191.150,160.872 189.710,161.373 188.606 C 161.875 187.503,162.405 185.943,162.553 185.140 C 162.700 184.337,163.071 183.473,163.375 183.220 C 163.680 182.967,164.152 181.835,164.423 180.705 C 164.694 179.574,165.230 178.098,165.614 177.425 C 165.997 176.751,166.431 175.520,166.576 174.688 C 166.722 173.857,167.171 172.597,167.574 171.888 C 167.977 171.180,168.426 169.795,168.573 168.810 C 168.719 167.826,169.077 166.746,169.368 166.410 C 170.327 165.307,170.519 162.920,169.715 162.110 C 169.322 161.713,168.771 160.941,168.491 160.395 C 166.886 157.254,160.641 150.179,156.956 147.326 C 151.483 143.087,144.959 142.042,140.800 144.738 C 140.250 145.095,139.170 145.678,138.400 146.034 C 137.630 146.390,136.138 147.342,135.084 148.150 C 130.581 151.603,125.764 151.517,126.684 148.001 C 127.132 146.287,142.376 130.800,143.615 130.800 C 143.817 130.800,144.276 130.350,144.637 129.800 C 144.997 129.250,145.496 128.795,145.746 128.789 C 145.996 128.783,146.893 128.253,147.741 127.612 C 148.588 126.970,149.790 126.334,150.413 126.197 C 151.035 126.060,151.759 125.690,152.021 125.374 C 152.884 124.334,157.179 124.624,159.450 125.875 M160.814 158.246 C 161.356 158.932,162.028 159.832,162.306 160.246 C 162.604 160.691,162.580 160.508,162.247 159.799 C 161.936 159.139,161.265 158.239,160.755 157.799 C 159.860 157.027,159.862 157.043,160.814 158.246 M280.485 161.996 C 280.665 163.224,278.180 169.194,277.250 169.769 C 276.367 170.315,276.685 165.028,277.585 164.214 C 278.017 163.823,278.571 162.895,278.816 162.152 C 279.368 160.479,280.250 160.397,280.485 161.996 M276.574 170.758 C 276.696 170.955,276.450 171.540,276.028 172.058 C 275.334 172.909,275.233 172.932,274.987 172.300 C 274.465 170.959,275.860 169.603,276.574 170.758 M175.250 193.850 C 174.986 194.429,174.862 194.995,174.974 195.107 C 175.086 195.219,175.368 194.811,175.600 194.200 C 176.149 192.757,175.873 192.482,175.250 193.850 M195.200 215.449 C 195.200 215.980,195.091 216.008,194.600 215.600 C 194.270 215.326,194.000 215.034,194.000 214.951 C 194.000 214.868,194.270 214.800,194.600 214.800 C 194.930 214.800,195.200 215.092,195.200 215.449 M221.188 269.700 C 221.178 270.805,221.112 270.891,220.754 270.276 C 220.523 269.877,220.432 269.292,220.554 268.976 C 220.924 268.012,221.201 268.329,221.188 269.700 M223.154 274.700 L 223.108 276.600 222.797 275.000 C 222.510 273.523,222.584 272.800,223.024 272.800 C 223.121 272.800,223.179 273.655,223.154 274.700 M148.800 279.062 C 148.800 281.819,139.870 291.173,136.600 291.841 C 136.380 291.886,135.885 292.049,135.500 292.204 C 134.966 292.419,134.800 292.286,134.800 291.643 C 134.800 291.084,135.054 290.800,135.555 290.800 C 136.147 290.800,136.370 290.396,136.592 288.917 C 136.747 287.881,137.129 286.846,137.442 286.617 C 137.754 286.388,138.142 285.472,138.305 284.582 C 138.699 282.419,139.912 280.984,142.042 280.160 C 143.009 279.786,143.971 279.327,144.180 279.140 C 144.622 278.744,148.800 278.673,148.800 279.062 " stroke="none" fill="#711e7e" fill-rule="evenodd"></path><path id="path4" d="M145.067 149.067 C 144.544 149.589,144.811 153.303,145.471 154.692 C 146.149 156.122,148.182 158.293,154.486 164.318 C 156.395 166.142,158.687 168.728,159.579 170.063 C 160.758 171.830,161.200 172.256,161.200 171.626 C 161.200 171.151,161.664 170.332,162.232 169.806 C 163.271 168.842,164.400 165.883,164.400 164.122 C 164.400 163.191,163.593 161.669,162.400 160.350 C 162.070 159.985,161.260 158.925,160.600 157.995 C 158.864 155.550,153.582 150.782,152.328 150.528 C 151.738 150.409,150.890 149.971,150.444 149.556 C 149.635 148.802,145.690 148.443,145.067 149.067 M278.816 162.152 C 278.571 162.895,278.017 163.823,277.585 164.214 C 276.685 165.028,276.367 170.315,277.250 169.769 C 278.180 169.194,280.665 163.224,280.485 161.996 C 280.250 160.397,279.368 160.479,278.816 162.152 M274.945 171.000 C 274.431 172.339,275.192 173.082,276.028 172.058 C 276.450 171.540,276.696 170.955,276.574 170.758 C 276.223 170.190,275.197 170.342,274.945 171.000 M177.685 187.700 C 177.031 189.295,176.276 191.546,176.008 192.701 C 175.739 193.857,175.379 194.890,175.206 194.996 C 175.034 195.103,174.664 196.407,174.385 197.895 C 174.106 199.383,173.627 200.987,173.319 201.460 C 172.949 202.030,172.800 203.181,172.880 204.860 L 173.000 207.400 175.748 207.672 C 181.119 208.202,186.642 209.992,190.995 212.614 L 193.200 213.942 193.200 212.171 C 193.200 210.924,193.035 210.400,192.643 210.400 C 192.001 210.400,191.600 209.549,191.600 208.185 C 191.600 207.663,191.150 206.572,190.600 205.762 C 190.050 204.951,189.600 203.964,189.600 203.568 C 189.600 203.171,189.410 202.730,189.179 202.587 C 188.947 202.444,188.133 201.038,187.371 199.463 C 185.195 194.970,179.388 184.800,178.998 184.800 C 178.930 184.800,178.339 186.105,177.685 187.700 M194.000 214.951 C 194.000 215.034,194.270 215.326,194.600 215.600 C 195.091 216.008,195.200 215.980,195.200 215.449 C 195.200 215.092,194.930 214.800,194.600 214.800 C 194.270 214.800,194.000 214.868,194.000 214.951 M220.554 268.976 C 220.432 269.292,220.523 269.877,220.754 270.276 C 221.112 270.891,221.178 270.805,221.188 269.700 C 221.201 268.329,220.924 268.012,220.554 268.976 M222.667 273.100 C 222.567 273.265,222.626 274.120,222.797 275.000 L 223.108 276.600 223.154 274.700 C 223.198 272.886,223.063 272.442,222.667 273.100 M230.534 278.000 C 230.534 279.650,230.605 280.325,230.691 279.500 C 230.778 278.675,230.778 277.325,230.691 276.500 C 230.605 275.675,230.534 276.350,230.534 278.000 M144.180 279.140 C 143.971 279.327,143.009 279.786,142.042 280.160 C 139.912 280.984,138.699 282.419,138.305 284.582 C 138.142 285.472,137.754 286.388,137.442 286.617 C 137.129 286.846,136.747 287.881,136.592 288.917 C 136.370 290.396,136.147 290.800,135.555 290.800 C 135.054 290.800,134.800 291.084,134.800 291.643 C 134.800 292.286,134.966 292.419,135.500 292.204 C 135.885 292.049,136.380 291.886,136.600 291.841 C 139.870 291.173,148.800 281.819,148.800 279.062 C 148.800 278.673,144.622 278.744,144.180 279.140 " stroke="none" fill="#420561" fill-rule="evenodd"></path></g></svg>